<svg xmlns="http://www.w3.org/2000/svg" viewBox="0 0 664.81 211.63"><defs><style>.cls-1{fill:#9e88fa;}</style></defs><g id="Layer_2" data-name="Layer 2"><g id="Layer_1-2" data-name="Layer 1"><path class="cls-1" d="M175.28,203.1v5.72l.78,2.81,19.86-5.33-.79-2.72-4.42,1.16c-.59-.48-.88-.77-1.57-1.26V188.94c0-15.13-11.9-22.6-23.89-22.6-7.67,0-15.53,3-20.06,9.21V178l6,5.82h2.46l6-5.82v-2.43l-2.85-2.81a8.86,8.86,0,0,1,7-3.69c5.22,0,10.52,5.53,11.31,16.59H159.94c-24.67,0-23.59,26-1.38,26A19.82,19.82,0,0,0,175.28,203.1Zm-8.56-14.65h8.56c0,8.83-3.05,18.14-11.31,18.14C153.26,206.59,151.88,188.45,166.72,188.45Z"/><path class="cls-1" d="M203.29,173.23c.59.48.88.67,1.57,1.16V206.3l-1.28,1.26h-4.91v2.81h26.25v-2.81H220l-1.28-1.26V188.94c0-10.87,6.1-16.78,11.6-16.78,4.53,0,8.66,4,8.66,12.51V206.3l-1.28,1.26h-4.92v2.81H259v-2.81h-4.91l-1.28-1.26V184.86c0-12.22-8.26-18.33-16.91-18.33a19.62,19.62,0,0,0-17.21,10.38v-7.86l-.68-2.71-19.86,5.33.69,2.72Z"/><path class="cls-1" d="M302.28,211.63l20-5.33-.69-2.72-4.43,1.16c-.68-.48-1-.67-1.57-1.16V143.94l-.78-2.62-20,5.24.69,2.81,4.42-1.17c.69.49,1,.68,1.57,1.17v27.35a19.72,19.72,0,0,0-17.3-10c-10.12,0-20.25,7.47-20.25,22.3,0,15,10.32,22.6,20.64,22.6a20.32,20.32,0,0,0,16.91-8.82v6Zm-12.49-5.33C283.9,206.3,278,200.57,278,189c0-11.05,5.8-16.58,11.7-16.58S301.49,178,301.49,189C301.49,200.57,295.59,206.3,289.79,206.3Z"/><path class="cls-1" d="M374.73,195.72,372,195c-1.77,7.37-7.28,13.77-17.6,13.77-10.52,0-13.47-10.76-13.27-21h34.6c-.1-13.68-12.09-21.34-24.38-21.34s-24.28,7.86-24.28,22.6c0,11.83,10.32,22.69,27.33,22.69C365.78,211.63,372.56,204.45,374.73,195.72ZM351.33,169c5,0,9.24,5.72,10.22,15.81H341.3C342.19,174.58,346.51,169,351.33,169Z"/><path class="cls-1" d="M400.38,176.72v-7.67l-.79-2.71-19.85,5.33.68,2.72,4.43-1.16a18.82,18.82,0,0,1,1.57,1.16V206.3c-.49.48-.69.77-1.18,1.26h-5v2.81h26.35v-2.81h-5a12.45,12.45,0,0,0-1.18-1.26v-18a19.31,19.31,0,0,1,5.11-13.48l5.71,5.73h2.45l6-5.92v-2.42l-6-5.92H411.2A31.08,31.08,0,0,0,400.38,176.72Z"/><path class="cls-1" d="M495.34,211.63c11.4,0,18.19-7.18,20.35-15.91l-2.75-.77c-1.77,7.37-7.28,13.77-17.6,13.77-10.52,0-13.47-10.76-13.27-21h34.6c-.09-13.68-12.09-21.34-24.38-21.34S468,174.2,468,188.94C468,200.77,478.33,211.63,495.34,211.63Zm-3-42.67c5,0,9.24,5.72,10.23,15.81H482.27C483.15,174.58,487.48,169,492.29,169Z"/><path class="cls-1" d="M552.16,166.34a31.08,31.08,0,0,0-10.82,10.38v-7.67l-.78-2.71-19.86,5.33.69,2.72,4.42-1.16a19,19,0,0,1,1.58,1.16V206.3c-.5.48-.69.77-1.18,1.26h-5v2.81h26.35v-2.81h-5a11.41,11.41,0,0,0-1.18-1.26v-18a19.32,19.32,0,0,1,5.12-13.48l5.7,5.73h2.46l6-5.92v-2.42l-6-5.92Z"/><path class="cls-1" d="M576.73,175.55c0-4.36,4.23-6.5,9-6.5a17,17,0,0,1,10.52,3.59l-2.86,2.91V178l6,5.91h2.46l6-5.91v-2.43c-4.53-6.11-13.67-9.21-22.22-9.21-10.13,0-19.47,4.46-19.47,14.74,0,18.14,31.07,12,31.07,22.31,0,3.29-4.33,5.33-9.83,5.33-7.47,0-16.91-3.78-19.37-13.67l-2.85.67c2.85,11.35,13.27,15.91,23.1,15.91,10.23,0,20-4.95,20-13.48C608.29,181.76,576.73,186,576.73,175.55Z"/><path class="cls-1" d="M643.48,208.72c-10.52,0-13.47-10.76-13.27-21h34.6c-.1-13.68-12.09-21.34-24.38-21.34s-24.28,7.86-24.28,22.6c0,11.83,10.32,22.69,27.33,22.69,11.4,0,18.19-7.18,20.35-15.91l-2.75-.77C659.31,202.32,653.8,208.72,643.48,208.72ZM640.43,169c5,0,9.24,5.72,10.22,15.81H630.4C631.29,174.58,635.61,169,640.43,169Z"/><path class="cls-1" d="M424.56,170.51c.59.39,1.08.68,1.67,1.07l17.8,40h2.45l15.64-40c.59-.38,1.08-.77,1.67-1.16H468V167.6H454.25v2.91h3.83a12,12,0,0,1,.79,1.26l-8.16,20.85-9.24-20.85c.39-.58.49-.68.89-1.26H447V167.6H421.31l2.05,2.91Z"/><path class="cls-1" d="M147.17,145.29h4.32v-2.81H137.73v2.81h3.74a14,14,0,0,0,.88,1.27l-16.52,42.18L108.63,150l1.28-3.39c.59-.49,1.08-.78,1.77-1.27h4.23v-2.81H82.58v2.81H87.1c.59.39,1.08.78,1.67,1.17l9.54,21.63-8.06,20.65L71.76,147a69.93,69.93,0,0,0-8.2-13.76l2.33-.71c9.21-2.87,17.71-5.39,24.53-7.38q4.53,1.88,9.62,3.55c12.87,4.24,25.48,7.88,38.28,5.8a20.3,20.3,0,0,0,7.12-2.31,8,8,0,0,0,3.19-3.24,8.21,8.21,0,0,0-.16-7.12c-3.24-6.61-12.23-9.09-26-7.17A99.73,99.73,0,0,0,105.87,118c-.1,0-6,1.64-15.28,4.32a95.93,95.93,0,0,1-12.86-6.56c-15.62-9.59-24.2-23-24.16-37.8,0-9.77,2.62-22.41,14.9-27.17a32.48,32.48,0,0,1,25.22,1.31c5.08,2.64,9.14,8.18,9.86,13.48a10.79,10.79,0,0,1-3.47,9.73,14.24,14.24,0,0,1-10.21,3.52,7,7,0,0,1-3.33-1.12l2.31-1.92L89,74.42l-3.27-3.78-1.41-.11L80.5,73.77l-.11,1.39,2.23,2.57h0a7.66,7.66,0,0,0,.89,1l.11.13h0a9.94,9.94,0,0,0,6.08,2.67,16.8,16.8,0,0,0,12.22-4.25,13.36,13.36,0,0,0,4.32-12.06c-.85-6.2-5.39-12.43-11.3-15.5A35.37,35.37,0,0,0,67.47,48.3C53.77,53.62,50.86,67.37,50.84,78c0,15.75,9,30,25.45,40.1a93.45,93.45,0,0,0,10.27,5.44c-6.25,1.83-13.61,4-21.49,6.49-1.15.36-2.22.7-3.25,1l-.38-.49c-10.81-12.6-25.16-19.1-38.34-19.1C7.87,111.45,0,118.53,0,125.61c0,10,13.08,13.67,23.2,13.67a129.49,129.49,0,0,0,25.55-2.69.26.26,0,0,0,.15.06l33.19,75h2.46l15.53-39.76,17.6,39.76h2.45l25.37-65.07C146.09,146.07,146.58,145.78,147.17,145.29ZM106.66,120.6a97.26,97.26,0,0,1,16.21-3.23c12.28-1.72,20.5.3,23.15,5.67a5.56,5.56,0,0,1,.16,4.77,5.41,5.41,0,0,1-2.16,2.11,17.58,17.58,0,0,1-6.15,2c-12.19,2-24.44-1.56-37-5.69-2.16-.72-4.24-1.45-6.24-2.22C102,121.87,106.54,120.63,106.66,120.6ZM23.2,136.37C14.84,136.37,3,133.56,3,125.61,3,120,9.83,114.26,23.1,114.26c12.19,0,19,7.47,24.58,19.59A125.54,125.54,0,0,1,23.2,136.37Z"/><path class="cls-1" d="M301.44,78.71h5a12.38,12.38,0,0,0,2.07-1.37L333,15.24l-3.32-7.56L340.86,0h2.41l39.41,90.4c3.09,6.88,9.05,11.92,16.84,11.92a20.94,20.94,0,0,0,15-6.19l2,2.06c-4.93,4.82-11.46,7-18.45,7-14.09,0-29.79-9.05-37-25.55l-7.1-16.27H317.14l-5.38,14c.45.57.57.8,1,1.37h4.47v3H301.44Zm16.85-18.33h34.37L334.67,19Z"/></g></g></svg>