<svg xmlns="http://www.w3.org/2000/svg" viewBox="0 0 664.81 165.44"><defs><style>.cls-1{fill:#f26e56;}</style></defs><g id="Layer_2" data-name="Layer 2"><g id="Layer_1-2" data-name="Layer 1"><path class="cls-1" d="M175.28,156.91v5.72l.78,2.81,19.86-5.33-.79-2.72-4.42,1.17a19.19,19.19,0,0,0-1.57-1.26V142.75c0-15.13-11.9-22.6-23.89-22.6-7.67,0-15.53,3-20.06,9.22v2.42l6,5.82h2.46l6-5.82v-2.42l-2.85-2.82a8.85,8.85,0,0,1,7-3.68c5.22,0,10.52,5.53,11.31,16.58H159.94c-24.67,0-23.59,26-1.38,26A19.82,19.82,0,0,0,175.28,156.91Zm-8.56-14.65h8.56c0,8.83-3.05,18.14-11.31,18.14C153.26,160.4,151.88,142.26,166.72,142.26Z"/><path class="cls-1" d="M203.29,127c.59.48.88.68,1.57,1.16v31.91l-1.28,1.26h-4.91v2.81h26.25v-2.81H220l-1.28-1.26V142.75c0-10.86,6.1-16.78,11.6-16.78,4.53,0,8.66,4,8.66,12.51v21.63l-1.28,1.26h-4.92v2.81H259v-2.81h-4.91l-1.28-1.26V138.68c0-12.22-8.26-18.33-16.91-18.33a19.63,19.63,0,0,0-17.21,10.37v-7.85l-.68-2.72-19.86,5.34.69,2.71Z"/><path class="cls-1" d="M302.28,165.44l20-5.33-.69-2.72-4.43,1.17c-.68-.49-1-.68-1.57-1.17V97.75l-.78-2.62-20,5.24.69,2.81,4.42-1.16c.69.48,1,.68,1.57,1.16v27.35a19.72,19.72,0,0,0-17.3-10c-10.12,0-20.25,7.47-20.25,22.31,0,15,10.32,22.59,20.64,22.59a20.3,20.3,0,0,0,16.91-8.82v6Zm-12.49-5.33c-5.89,0-11.79-5.72-11.79-17.26,0-11.06,5.8-16.59,11.7-16.59s11.79,5.53,11.79,16.59C301.49,154.39,295.59,160.11,289.79,160.11Z"/><path class="cls-1" d="M374.73,149.54l-2.75-.78c-1.77,7.37-7.28,13.77-17.6,13.77-10.52,0-13.47-10.76-13.27-21h34.6c-.1-13.68-12.09-21.34-24.38-21.34s-24.28,7.86-24.28,22.6c0,11.83,10.32,22.69,27.33,22.69C365.78,165.44,372.56,158.27,374.73,149.54Zm-23.4-26.77c5,0,9.24,5.72,10.22,15.81H341.3C342.19,128.4,346.51,122.77,351.33,122.77Z"/><path class="cls-1" d="M400.38,130.53v-7.66l-.79-2.72-19.85,5.34.68,2.71,4.43-1.16c.69.48,1,.68,1.57,1.16v31.91c-.49.48-.69.77-1.18,1.26h-5v2.81h26.35v-2.81h-5a12.45,12.45,0,0,0-1.18-1.26V142.17a19.3,19.3,0,0,1,5.11-13.48l5.71,5.72h2.45l6-5.92v-2.42l-6-5.92H411.2A31.08,31.08,0,0,0,400.38,130.53Z"/><path class="cls-1" d="M495.34,165.44c11.4,0,18.19-7.17,20.35-15.9l-2.75-.78c-1.77,7.37-7.28,13.77-17.6,13.77-10.52,0-13.47-10.76-13.27-21h34.6c-.09-13.68-12.09-21.34-24.38-21.34S468,128,468,142.75C468,154.58,478.33,165.44,495.34,165.44Zm-3-42.67c5,0,9.24,5.72,10.23,15.81H482.27C483.15,128.4,487.48,122.77,492.29,122.77Z"/><path class="cls-1" d="M552.16,120.15a31.08,31.08,0,0,0-10.82,10.38v-7.66l-.78-2.72-19.86,5.34.69,2.71,4.42-1.16c.69.48,1,.68,1.58,1.16v31.91c-.5.48-.69.77-1.18,1.26h-5v2.81h26.35v-2.81h-5a11.41,11.41,0,0,0-1.18-1.26V142.17a19.3,19.3,0,0,1,5.12-13.48l5.7,5.72h2.46l6-5.92v-2.42l-6-5.92Z"/><path class="cls-1" d="M576.73,129.37c0-4.37,4.23-6.5,9-6.5a17,17,0,0,1,10.52,3.59l-2.86,2.91v2.42l6,5.92h2.46l6-5.92v-2.42c-4.53-6.11-13.67-9.22-22.22-9.22-10.13,0-19.47,4.46-19.47,14.74,0,18.14,31.07,12,31.07,22.31,0,3.3-4.33,5.33-9.83,5.33-7.47,0-16.91-3.78-19.37-13.67l-2.85.68c2.85,11.34,13.27,15.9,23.1,15.9,10.23,0,20-4.94,20-13.48C608.29,135.57,576.73,139.84,576.73,129.37Z"/><path class="cls-1" d="M643.48,162.53c-10.52,0-13.47-10.76-13.27-21h34.6c-.1-13.68-12.09-21.34-24.38-21.34s-24.28,7.86-24.28,22.6c0,11.83,10.32,22.69,27.33,22.69,11.4,0,18.19-7.17,20.35-15.9l-2.75-.78C659.31,156.13,653.8,162.53,643.48,162.53Zm-3.05-39.76c5,0,9.24,5.72,10.22,15.81H630.4C631.29,128.4,635.61,122.77,640.43,122.77Z"/><path class="cls-1" d="M424.56,124.32c.59.39,1.08.68,1.67,1.07L444,165.44h2.45l15.64-39.95c.59-.39,1.08-.78,1.67-1.17H468v-2.91H454.25v2.91h3.83a13.09,13.09,0,0,1,.79,1.26l-8.16,20.85-9.24-20.85c.39-.58.49-.68.89-1.26H447v-2.91H421.31l2.05,2.91Z"/><path class="cls-1" d="M147.17,99.11h4.32V96.29H137.73v2.82h3.74a15.27,15.27,0,0,0,.88,1.26l-16.52,42.18-17.2-38.79,1.28-3.39c.59-.49,1.08-.78,1.77-1.26h4.23V96.29H82.58v2.82H87.1c.59.38,1.08.77,1.67,1.16l9.54,21.63-8.06,20.65-18.49-41.7a69.55,69.55,0,0,0-8.2-13.75l2.33-.72C75.1,83.51,83.6,81,90.42,79q4.53,1.88,9.62,3.55c12.87,4.24,25.48,7.87,38.28,5.79A20.3,20.3,0,0,0,145.44,86a8,8,0,0,0,3.19-3.24,8.21,8.21,0,0,0-.16-7.12c-3.24-6.61-12.23-9.09-26-7.17a100.76,100.76,0,0,0-16.62,3.32c-.1,0-6,1.64-15.28,4.32a94.77,94.77,0,0,1-12.86-6.56c-15.62-9.59-24.2-23-24.16-37.8,0-9.76,2.62-22.4,14.9-27.17A32.43,32.43,0,0,1,93.69,5.94c5.08,2.64,9.14,8.18,9.86,13.47a10.78,10.78,0,0,1-3.47,9.73,14.24,14.24,0,0,1-10.21,3.53,7,7,0,0,1-3.33-1.12l2.31-1.93L89,28.23l-3.27-3.78-1.41-.11L80.5,27.58,80.39,29l2.23,2.58h0a8.44,8.44,0,0,0,.89,1l.11.12h0a9.94,9.94,0,0,0,6.08,2.67,16.8,16.8,0,0,0,12.22-4.25,13.34,13.34,0,0,0,4.32-12.06c-.85-6.2-5.39-12.43-11.3-15.5A35.32,35.32,0,0,0,67.47,2.12C53.77,7.43,50.86,21.19,50.84,31.79c0,15.75,9,30,25.45,40.09a95.22,95.22,0,0,0,10.27,5.45c-6.25,1.82-13.61,4-21.49,6.49-1.15.35-2.22.7-3.25,1l-.38-.48C50.63,71.76,36.28,65.26,23.1,65.26,7.87,65.26,0,72.34,0,79.42c0,10,13.08,13.67,23.2,13.67A128.74,128.74,0,0,0,48.75,90.4a.35.35,0,0,0,.15.07l33.19,75h2.46l15.53-39.76,17.6,39.76h2.45l25.37-65.07C146.09,99.88,146.58,99.59,147.17,99.11Zm-40.51-24.7a98.28,98.28,0,0,1,16.21-3.23c12.28-1.72,20.5.3,23.15,5.67a5.58,5.58,0,0,1,.16,4.78,5.33,5.33,0,0,1-2.16,2.1,17.58,17.58,0,0,1-6.15,2c-12.19,2-24.44-1.56-37-5.69q-3.24-1.06-6.24-2.22C102,75.69,106.54,74.44,106.66,74.41ZM23.2,90.19C14.84,90.19,3,87.37,3,79.42,3,73.8,9.83,68.07,23.1,68.07c12.19,0,19,7.47,24.58,19.59A125.54,125.54,0,0,1,23.2,90.19Z"/></g></g></svg>