<svg xmlns="http://www.w3.org/2000/svg" viewBox="0 0 960.22 507.3"><defs><style>.cls-1{fill:#fde9f1;}</style></defs><g id="Layer_2" data-name="Layer 2"><g id="Layer_1-2" data-name="Layer 1"><path class="cls-1" d="M253.16,254v8.26l1.14,4.07L283,258.6l-1.14-3.92-6.39,1.68c-.85-.7-1.28-1.12-2.27-1.82v-21c0-21.85-17.18-32.64-34.5-32.64-11.08,0-22.44,4.34-29,13.31v3.5l8.66,8.41h3.55l8.66-8.41v-3.5l-4.11-4.06a12.78,12.78,0,0,1,10.08-5.33c7.52,0,15.19,8,16.33,24H231c-35.64,0-34.08,37.54-2,37.54C238.11,266.31,247.34,262.53,253.16,254Zm-12.35-21.15h12.35c0,12.75-4.4,26.19-16.33,26.19C221.35,259,219.37,232.83,240.81,232.83Z"/><path class="cls-1" d="M293.62,210.84c.85.7,1.28,1,2.27,1.68V258.6l-1.84,1.82H287v4.07h37.91v-4.07h-7.1l-1.85-1.82V233.53c0-15.69,8.81-24.23,16.76-24.23,6.53,0,12.49,5.74,12.49,18.07V258.6l-1.84,1.82h-7.1v4.07h37.91v-4.07H367l-1.85-1.82v-31c0-17.65-11.92-26.48-24.42-26.48a28.33,28.33,0,0,0-24.85,15V204.81l-1-3.92-28.68,7.71,1,3.92Z"/><path class="cls-1" d="M436.6,266.31l28.82-7.71-1-3.92L458,256.36c-1-.7-1.42-1-2.27-1.68V168.53l-1.14-3.78-28.82,7.57,1,4.06,6.39-1.68c1,.7,1.42,1,2.27,1.68v39.5a28.49,28.49,0,0,0-25-14.43c-14.62,0-29.25,10.79-29.25,32.22,0,21.71,14.91,32.64,29.82,32.64a29.32,29.32,0,0,0,24.42-12.75v8.68Zm-18-7.71c-8.51,0-17-8.26-17-24.93,0-16,8.37-23.95,16.89-23.95s17,8,17,23.95C435.46,250.34,426.94,258.6,418.56,258.6Z"/><path class="cls-1" d="M541.24,243.33l-4-1.12c-2.55,10.65-10.51,19.9-25.42,19.9-15.19,0-19.45-15.55-19.16-30.4h50c-.15-19.75-17.47-30.82-35.22-30.82-17.6,0-35.07,11.35-35.07,32.64,0,17.09,14.91,32.78,39.47,32.78C528.32,266.31,538.11,255.94,541.24,243.33Zm-33.8-38.66c7.24,0,13.35,8.27,14.77,22.84H493C494.24,212.8,500.49,204.67,507.44,204.67Z"/><path class="cls-1" d="M578.29,215.88V204.81l-1.14-3.92-28.68,7.71,1,3.92,6.38-1.68c1,.7,1.43,1,2.28,1.68V258.6c-.71.7-1,1.12-1.71,1.82h-7.24v4.07h38.06v-4.07H580a18.86,18.86,0,0,0-1.7-1.82V232.69a27.89,27.89,0,0,1,7.38-19.47l8.24,8.26h3.55l8.66-8.54v-3.5l-8.66-8.55h-3.55C588.51,204.25,582.55,208.74,578.29,215.88Z"/><path class="cls-1" d="M715.44,266.31c16.48,0,26.27-10.37,29.4-23l-4-1.12c-2.56,10.65-10.51,19.9-25.42,19.9-15.19,0-19.45-15.55-19.16-30.4h50c-.14-19.75-17.47-30.82-35.22-30.82-17.6,0-35.07,11.35-35.07,32.64C676,250.62,690.88,266.31,715.44,266.31ZM711,204.67c7.24,0,13.35,8.27,14.77,22.84H696.56C697.84,212.8,704.08,204.67,711,204.67Z"/><path class="cls-1" d="M797.51,200.89c-5.4,3.36-11.36,7.85-15.62,15V204.81l-1.14-3.92-28.68,7.71,1,3.92,6.39-1.68c1,.7,1.42,1,2.27,1.68V258.6c-.71.7-1,1.12-1.71,1.82h-7.24v4.07h38.06v-4.07h-7.25a18.86,18.86,0,0,0-1.7-1.82V232.69a27.89,27.89,0,0,1,7.38-19.47l8.24,8.26h3.55l8.66-8.54v-3.5l-8.66-8.55Z"/><path class="cls-1" d="M833,214.2c0-6.31,6.11-9.39,13.06-9.39,5.4,0,11.51,2,15.2,5.19l-4.12,4.2v3.5l8.66,8.55h3.55L878,217.7v-3.5c-6.53-8.83-19.73-13.31-32.09-13.31-14.62,0-28.11,6.44-28.11,21.29,0,26.2,44.87,17.37,44.87,32.22,0,4.76-6.25,7.71-14.2,7.71-10.79,0-24.43-5.47-28-19.76l-4.12,1c4.12,16.39,19.17,23,33.37,23,14.76,0,28.82-7.15,28.82-19.47C878.58,223.16,833,229.33,833,214.2Z"/><path class="cls-1" d="M929.41,262.11c-15.2,0-19.46-15.55-19.17-30.4h50c-.14-19.75-17.47-30.82-35.22-30.82s-35.07,11.35-35.07,32.64c0,17.09,14.91,32.78,39.48,32.78,16.47,0,26.27-10.37,29.39-23l-4-1.12C952.27,252.86,944.32,262.11,929.41,262.11ZM925,204.67c7.25,0,13.35,8.27,14.77,22.84H910.52C911.8,212.8,918.05,204.67,925,204.67Z"/><path class="cls-1" d="M613.21,206.91c.85.57,1.57,1,2.42,1.55l25.7,57.85h3.55l22.58-57.71c.85-.56,1.56-1.12,2.41-1.69H676v-4.2H656.1v4.2h5.53a20.91,20.91,0,0,1,1.14,1.83L651,238.85l-13.34-30.11c.56-.85.71-1,1.27-1.83h6.68v-4.2H608.52l3,4.2Z"/><path class="cls-1" d="M212.56,170.49h6.25v-4.06H198.93v4.06h5.4a17.63,17.63,0,0,0,1.27,1.83l-23.85,60.93-24.85-56,1.85-4.9c.85-.7,1.56-1.12,2.55-1.83h6.11v-4.06H119.27v4.06h6.53c.86.57,1.57,1.13,2.42,1.69L142,203.41l-11.64,29.84L103.65,173a101,101,0,0,0-11.84-19.87l3.36-1c13.3-4.15,25.57-7.79,35.43-10.66q6.54,2.72,13.89,5.13c18.59,6.12,36.8,11.37,55.29,8.37a29.33,29.33,0,0,0,10.28-3.34,11.53,11.53,0,0,0,4.62-4.67,11.89,11.89,0,0,0-.24-10.29c-4.68-9.55-17.66-13.13-37.53-10.35-8.73,1.22-16.56,2.42-24,4.79-.15,0-8.73,2.37-22.08,6.24a137.64,137.64,0,0,1-18.57-9.47C89.71,114,77.32,94.62,77.37,73.27,77.4,59.16,81.16,40.91,98.9,34c11.21-4.35,25.85-3.59,36.42,1.9,7.34,3.81,13.2,11.81,14.24,19.45a15.56,15.56,0,0,1-5,14.06,20.5,20.5,0,0,1-14.75,5.09A10,10,0,0,1,125,72.91l3.34-2.78.16-2-4.73-5.45-2-.16-5.45,4.67-.16,2,3.23,3.72h0a11.72,11.72,0,0,0,1.28,1.47l.16.18h0a14.34,14.34,0,0,0,8.78,3.85,24.23,24.23,0,0,0,17.65-6.14,19.23,19.23,0,0,0,6.23-17.41c-1.22-9-7.78-18-16.31-22.39-11.53-6-27.49-6.81-39.7-2.07-19.8,7.68-24,27.54-24,42.85-.06,22.75,13,43.32,36.75,57.91A137.89,137.89,0,0,0,125,139c-9,2.64-19.65,5.82-31,9.37l-4.69,1.49-.55-.7C73.13,131,52.39,121.61,33.37,121.61c-22,0-33.37,10.23-33.37,20.45,0,14.43,18.89,19.75,33.51,19.75a186.62,186.62,0,0,0,36.9-3.89.65.65,0,0,0,.22.1l47.93,108.29h3.55l22.44-57.43L170,266.31h3.55l36.64-94C211,171.62,211.71,171.2,212.56,170.49Zm-58.51-35.66c7.21-2.3,14.87-3.48,23.42-4.67,17.74-2.48,29.61.43,33.43,8.19a8,8,0,0,1,.23,6.9,7.83,7.83,0,0,1-3.11,3,25.77,25.77,0,0,1-8.89,2.83c-17.6,2.85-35.29-2.26-53.39-8.22q-4.69-1.54-9-3.2C147.29,136.67,153.88,134.87,154.05,134.83ZM33.51,157.61c-12.07,0-29.25-4.06-29.25-15.55,0-8.12,9.94-16.39,29.11-16.39,17.61,0,27.4,10.79,35.5,28.3A181.19,181.19,0,0,1,33.51,157.61Z"/><path class="cls-1" d="M365.08,47.15a18.49,18.49,0,0,0,8.51-2l.24-.12c.1-.06.24-.17.41-.29l.06,0a18.8,18.8,0,0,0,1.74-1.5l.74-.71,2.66-2.59V38l-4.94-4.87h-2L367.68,38v1.93l2.72,2.69c-6.15,2.29-14,.31-18.88-5a19.73,19.73,0,0,1-4.31-19.88,20.6,20.6,0,0,1,16-13.5c7.55-1.42,16.61,0,25.24,2.1v96c-.71.7-1,1.12-1.71,1.82h-7.24v4.06h42.31v-4.06h-7.24c-.71-.7-1-1.12-1.7-1.82V50h0V44.9h-.16V12.41A173.25,173.25,0,0,0,444,15.49V102.2L442.13,104H435v4.2h37.91V104h-7.1L464,102.2V77.26c0-15.82,8.8-24.37,16.75-24.37,6.53,0,12.5,5.74,12.5,18.07V102.2L491.4,104h-7.1v4.2h37.91V104h-7.1l-1.84-1.82V71.38c0-17.65-11.93-26.47-24.42-26.47a28.32,28.32,0,0,0-24.85,15v-46h0V8.81l-2.45.33-.89.13a167.35,167.35,0,0,1-26.79,1.78,129.68,129.68,0,0,1-31.31-4.74l-1.87-.53C389,2.5,374.34-1.58,362.55.63a24.23,24.23,0,0,0-18.83,15.91,23.29,23.29,0,0,0,5,23.46A22.34,22.34,0,0,0,365.08,47.15Z"/><path class="cls-1" d="M565.94,110c16.47,0,26.27-10.37,29.39-23l-4-1.12c-2.55,10.64-10.5,19.89-25.41,19.89-15.2,0-19.46-15.55-19.17-30.4h50c-.14-19.75-17.47-30.81-35.21-30.81S526.46,56,526.46,77.26C526.46,94.35,541.37,110,565.94,110Zm-4.4-61.63c7.24,0,13.34,8.26,14.76,22.83H547.05C548.33,56.53,554.58,48.41,561.54,48.41Z"/><path class="cls-1" d="M291.85,386.34c37.91,0,51.4-17.51,51.4-35.72,0-19.61-16.19-39.93-61.63-39.93-26.27,0-53,12.33-53,38a30.7,30.7,0,0,0,9.23,21.71l2.84-2.8a27.14,27.14,0,0,1-7.81-18.91c0-20.87,23.85-33.9,46-33.9,56.09,0,51.12,67.51,11.93,67.51h-5.11V340.39a20.09,20.09,0,0,0,1.85-1.68h7.1v-4.2H252.51v4.2h7.1a20.09,20.09,0,0,0,1.85,1.68v86.29l-1.85,1.82h-7.1v4.06h42.18V428.5h-7.1l-1.85-1.82V386.34Z"/><path class="cls-1" d="M385.83,369c-5.39,3.36-11.35,7.84-15.61,15V372.89L369.08,369l-28.68,7.7,1,3.92,6.39-1.68c1,.7,1.42,1,2.27,1.68v46.09c-.71.7-1,1.12-1.7,1.82h-7.24v4.06h38.05V428.5h-7.24a21.76,21.76,0,0,0-1.7-1.82V400.76a27.86,27.86,0,0,1,7.38-19.47l8.23,8.27h3.55L398,381v-3.5L389.38,369Z"/><path class="cls-1" d="M601.79,399.78C601.65,380,584.32,369,566.57,369S531.5,380.31,531.5,401.6c0,17.09,14.91,32.78,39.48,32.78,16.47,0,26.27-10.36,29.39-23l-4-1.12c-2.55,10.64-10.5,19.89-25.41,19.89-15.2,0-19.46-15.55-19.17-30.4Zm-35.22-27c7.25,0,13.35,8.26,14.77,22.83H552.09C553.37,380.87,559.62,372.75,566.57,372.75Z"/><path class="cls-1" d="M709.13,434.38c8.8,0,18.6-7.84,22.43-23l-4.12-1c-2.41,9.52-6.39,14.29-9.8,14.29-3.12,0-5.82-4.49-5.82-13.45V375H726v-4.2h-14.2V357.06a23.36,23.36,0,0,0-46.71,0,20.52,20.52,0,0,0,.85,6l2.56,9.25a14.22,14.22,0,0,1-1.57,1.12,25.69,25.69,0,0,0-15.05-4.34c-24.28,0-39.47,15.13-39.47,32.63,0,17.09,15.05,32.64,39.47,32.64,16.47,0,26.27-10.22,29.54-23l-4.12-1c-2.56,10.5-10.51,19.89-25.42,19.89-14.62,0-19.17-14.15-19.17-28.58,0-14.7,4.55-28.57,19.17-28.57,9.09,0,15.76,4.06,19.45,10.08l2.7,9.81,4.12-1.12-8.24-29.84a19.88,19.88,0,0,1-.56-5,19.1,19.1,0,0,1,38.19,0v9.67l-15.9,4.06h-8.95V375H690l1.7,1.68v31.38C691.66,425.84,700,434.38,709.13,434.38Z"/><polygon class="cls-1" points="504.53 338.71 494.31 348.94 494.31 353 504.53 363.08 508.65 363.08 519.01 353 519.01 348.94 508.65 338.71 504.53 338.71"/><path class="cls-1" d="M777.86,419.89l0-.14h0c-.13-.26-.25-.53-.4-.79l-1.22-2.82-1.7-.67-6,2.55-.67,1.67,2.6,5.82,1.69.66L775,425l.21-.14a39,39,0,0,1,.52,4.12c1.92,27.52-26.77,52.82-49.2,62.21-49.91,20.9-102,12-153-.41l-8.44-2.08-13.69-3.44c-14.72-3.73-29.86-7.55-44.71-10.65l-.22-.07-3.26-1.06c14-20.37,13.65-46.75,13.65-46.75V372.89l-1-3.92-34.66,9.14L471.56,380c-7.24-7-18.05-11-30.07-11-24.14,0-39.33,15.27-39.33,32.63s14.91,32.78,39.33,32.78c24.14,0,39.33-15.27,39.33-32.78A29.21,29.21,0,0,0,475,383.85l20.38-4.35c.46.34.87.63,1.53,1.09v81.13A31.46,31.46,0,0,1,495,472.06a149.26,149.26,0,0,0-24.71-.87c-5.72.33-12.85,1.28-17.15,5.66a10.07,10.07,0,0,0-2.51,9.89,13.14,13.14,0,0,0,9,9,25.15,25.15,0,0,0,6.93,1,29.23,29.23,0,0,0,7.47-1,43.41,43.41,0,0,0,18.82-10.85,52,52,0,0,0,7.73-7.83l2.89.57c15.58,3.17,31.55,7.21,47.07,11.13q7.53,1.92,15.1,3.8c31.47,7.81,63.39,14.78,95.13,14.78,22.6,0,45.1-3.53,67.27-12.81,24.52-10.27,56.09-38.92,51-69.73A41,41,0,0,0,777.86,419.89ZM441.49,373.17c7.75,0,12.63,3.84,15.53,9.58-4.34.81-7.89,1.45-10,1.81-5.65.93-21.93,3.47-23,3.39C425.72,380.29,431.56,373.17,441.49,373.17Zm0,57c-14.48,0-19.17-14-19.17-28.58a59.67,59.67,0,0,1,.37-6.59l36.12-7.71a50.43,50.43,0,0,1,1.85,14.3C460.66,416.17,456,430.18,441.49,430.18Zm46,54.14A38.65,38.65,0,0,1,473,491.94a22.73,22.73,0,0,1-12.27.07,9.17,9.17,0,0,1-6.24-6.27,6.25,6.25,0,0,1,1.54-6.18c3.35-3.42,9.53-4.19,14.55-4.49a142.39,142.39,0,0,1,22.9.75A33.41,33.41,0,0,1,487.53,484.32Z"/></g></g></svg>