<svg xmlns="http://www.w3.org/2000/svg" viewBox="0 0 345.21 345.22"><g id="Layer_2" data-name="Layer 2"><g id="Layer_1-2" data-name="Layer 1"><polygon points="0 0 0 82.85 0 82.86 0 96.66 13.81 96.66 13.81 82.86 13.81 82.85 13.81 0 0 0"/><polygon points="0 110.47 0 151.89 0 165.71 13.81 165.71 13.81 151.89 13.81 110.47 0 110.47"/><rect y="179.51" width="13.81" height="55.24"/><polygon points="0 248.56 0 276.17 0 317.6 0 345.21 13.81 345.21 13.81 317.6 13.81 276.17 13.81 248.56 0 248.56"/><polygon points="13.81 0 13.81 13.81 27.61 13.81 41.43 13.81 55.23 13.81 69.04 13.81 69.05 13.81 82.85 13.81 82.85 82.85 69.05 82.85 69.04 82.85 55.23 82.85 41.43 82.85 27.61 82.85 13.81 82.85 13.81 96.66 27.61 96.66 41.43 96.66 55.23 96.66 69.04 96.66 69.05 96.66 82.85 96.66 96.66 96.66 96.66 82.86 96.66 82.85 96.66 0 13.81 0"/><polygon points="55.24 69.04 69.04 69.04 69.04 27.62 55.24 27.62 41.43 27.62 27.62 27.62 27.62 69.04 41.43 69.04 55.24 69.04"/><polygon points="55.24 317.6 69.04 317.6 69.04 276.18 55.24 276.18 41.43 276.18 27.62 276.18 27.62 317.6 41.43 317.6 55.24 317.6"/><polygon points="82.85 207.13 69.05 207.13 69.04 207.13 55.23 207.13 41.42 207.13 41.42 193.32 27.62 193.32 27.62 220.94 41.42 220.94 41.42 234.74 55.23 234.74 69.04 234.74 69.05 234.74 82.85 234.74 96.66 234.74 96.66 220.94 82.85 220.94 82.85 207.13"/><polygon points="82.85 248.56 69.05 248.56 69.04 248.56 55.24 248.56 41.43 248.56 27.61 248.56 13.81 248.56 13.81 262.36 27.61 262.36 41.43 262.36 55.24 262.36 69.04 262.36 69.05 262.36 82.85 262.36 82.85 276.17 82.85 317.6 82.85 331.4 69.05 331.4 69.04 331.4 55.24 331.4 41.43 331.4 27.61 331.4 13.81 331.4 13.81 345.21 27.61 345.21 41.43 345.21 55.24 345.21 69.04 345.21 69.05 345.21 82.85 345.21 96.65 345.21 96.65 317.6 96.65 276.17 96.65 248.56 82.85 248.56"/><rect x="82.85" y="193.32" width="13.81" height="13.81"/><rect x="96.66" y="207.13" width="13.81" height="13.81"/><polygon points="110.47 248.56 124.27 248.56 138.08 248.56 138.08 234.75 138.08 220.94 124.27 220.94 124.27 234.75 110.47 234.75 110.47 248.56"/><polygon points="124.28 331.4 110.47 331.4 110.47 345.21 124.28 345.21 138.09 345.21 138.09 331.4 124.28 331.4"/><rect x="124.28" y="0.01" width="13.8" height="13.81"/><path d="M96.65,165.7H82.85V151.9h13.8Zm-55.22,0V151.9H55.24V138.08H41.43V124.27H55.24v13.81H69V165.7H41.43ZM151.89,27.62V13.81h-13.8V27.62H110.47V82.85h0v27.6h13.81V82.86h0V69h13.81v41.42H124.28v13.81H96.65v13.81H82.85V124.27h13.8V110.46h-69v27.62H13.81V151.9h13.8v13.8H13.81v13.81H55.24v13.81H69.05V179.51h41.42V165.7h13.81V138.08h27.61V82.85H165.7V69h27.62v41.42H179.51V82.85H165.7v41.42h13.81v13.81h13.81V124.27h13.81V69H193.32V55.23h13.81V41.42H179.51V55.23H165.7V69H138.09V55.23H124.28V41.42h13.81V55.23H165.7V41.42h13.81V27.62H151.89Z"/><polygon points="151.89 151.89 138.09 151.89 138.09 165.7 151.89 165.7 165.7 165.7 165.7 151.89 151.89 151.89"/><polygon points="165.7 289.98 151.9 289.98 138.09 289.98 124.28 289.98 124.28 276.18 138.09 276.18 151.9 276.18 151.9 262.36 138.09 262.36 124.28 262.36 110.46 262.36 110.46 276.18 110.46 317.6 124.28 317.6 124.28 317.59 138.09 317.59 138.09 331.4 151.9 331.4 151.9 317.59 151.9 303.78 165.7 303.78 165.7 289.98"/><rect x="165.7" y="303.79" width="13.81" height="13.81"/><polygon points="151.89 0 151.89 13.81 165.7 13.81 179.51 13.81 179.51 27.62 193.32 27.62 207.13 27.62 207.13 13.81 193.32 13.81 193.32 0 151.89 0"/><polygon points="193.32 234.75 193.32 220.94 179.51 220.94 165.71 220.94 165.71 207.13 179.51 207.13 179.51 193.32 165.71 193.32 151.9 193.32 138.08 193.32 138.08 207.13 151.9 207.13 151.9 234.75 165.71 234.75 165.71 248.55 179.51 248.55 179.51 262.36 193.32 262.36 207.13 262.36 207.13 248.55 193.32 248.55 193.32 234.75"/><polygon points="179.51 276.17 179.51 289.98 193.32 289.98 207.13 289.98 207.13 276.17 193.32 276.17 179.51 276.17"/><polygon points="193.32 165.7 179.51 165.7 165.71 165.7 165.71 179.51 179.51 179.51 193.32 179.51 193.32 207.13 207.13 207.13 207.13 151.89 193.32 151.89 193.32 165.7"/><polygon points="193.32 303.79 193.32 317.59 193.32 331.4 179.51 331.4 165.7 331.4 165.7 345.21 179.51 345.21 193.32 345.21 207.13 345.21 207.13 317.59 207.13 303.79 193.32 303.79"/><rect x="207.13" y="13.81" width="13.81" height="13.81"/><rect x="207.13" y="41.42" width="13.81" height="13.81"/><rect x="207.13" y="96.65" width="13.81" height="27.62"/><rect x="207.13" y="193.32" width="13.81" height="27.62"/><polygon points="234.75 82.85 234.75 82.84 234.75 55.24 220.94 55.24 220.94 69.04 207.13 69.04 207.13 82.84 220.94 82.84 220.94 82.85 220.94 96.65 234.75 96.65 234.75 82.85"/><rect x="220.94" y="179.51" width="13.81" height="13.81"/><polygon points="220.94 317.6 207.13 317.6 207.13 331.4 220.94 331.4 234.75 331.4 248.56 331.4 248.56 317.6 234.75 317.6 220.94 317.6"/><polygon points="248.56 138.08 248.56 124.28 234.75 124.28 220.94 124.28 220.94 138.08 234.75 138.08 248.56 138.08"/><rect x="248.56" y="138.09" width="13.81" height="13.81"/><rect x="248.56" y="248.56" width="13.81" height="13.81"/><rect x="262.37" y="331.4" width="13.8" height="13.81"/><polygon points="289.98 27.62 289.98 27.62 276.18 27.62 276.18 69.04 289.98 69.04 289.98 69.04 303.78 69.04 317.6 69.04 317.6 27.62 303.78 27.62 289.98 27.62"/><path d="M262.37,290h13.8v13.8h-13.8Zm-27.62-55.23h41.42v41.42H234.75Zm-27.62-96.67v27.63h27.62v13.8h27.62v13.81H234.75v27.62H220.94v13.81H207.13v13.8h13.81v27.62H207.13v27.62h13.81V290h27.61v13.81h13.82V317.6h13.8V303.79H290V317.6H276.17v13.8H290V317.6h27.6V303.78h-13.8V290h13.8v13.8h13.82V331.4H303.79v13.82h41.42V290H317.59V276.17h-13.8V290H290V234.75h27.6v41.42h27.62V248.55h-13.8v-13.8h13.8V220.94h-13.8V207.13h13.8V193.32H317.59v27.62H276.17V179.51h41.42v-13.8h-69V151.89H220.94V138.08Z"/><rect x="289.98" y="193.32" width="13.81" height="13.81"/><path d="M262.36,13.81h69.05v69H262.36ZM248.56,0V82.85h0v13.8h96.65V0Z"/><polygon points="303.79 110.47 289.99 110.47 289.98 110.47 276.17 110.47 262.37 110.47 248.56 110.47 248.56 124.27 262.37 124.27 262.37 138.08 276.17 138.08 276.17 124.27 289.98 124.27 289.99 124.27 303.79 124.27 303.79 138.08 289.99 138.08 289.98 138.08 276.17 138.08 276.17 151.89 289.98 151.89 289.99 151.89 303.79 151.89 317.59 151.89 317.59 165.71 331.41 165.71 331.41 179.51 345.21 179.51 345.21 138.08 331.41 138.08 317.59 138.08 317.59 110.47 303.79 110.47"/></g></g></svg>