<svg xmlns="http://www.w3.org/2000/svg" viewBox="0 0 51.62 63.13">
    <g id="Layer_2" data-name="Layer 2">
        <g id="Layer_1-2" data-name="Layer 1">
            <path class="cls-1"
                  d="M32,.58a3.19,3.19,0,0,1,4.46.79L46.3,15.53a2.26,2.26,0,0,1-.57,3.15L31.59,28.51a3.18,3.18,0,0,1-5-3.18L28,17.9a18.87,18.87,0,1,0,9.26,34.29c7.1-4.93,6.1-9.75,8.59-11.48a3.76,3.76,0,0,1,5.25.94C53.43,45.05,47.9,54,41.55,58.4A26.44,26.44,0,1,1,29.29,10.46l1.4-7.83A3.17,3.17,0,0,1,32,.58Z"/>
        </g>
    </g>
</svg>
