<svg xmlns="http://www.w3.org/2000/svg" viewBox="0 0 94.82 1.57"><g id="Layer_2" data-name="Layer 2"><g id="Layer_1-2" data-name="Layer 1"><path d="M.07,0A1.36,1.36,0,0,1,1.15.61c.23.27.38.42.68.42S2.27.88,2.5.61A1.36,1.36,0,0,1,3.58,0,1.36,1.36,0,0,1,4.66.61C4.89.88,5,1,5.33,1S5.78.88,6,.61A1.36,1.36,0,0,1,7.09,0,1.36,1.36,0,0,1,8.17.61c.23.27.37.42.67.42s.45-.15.68-.42a1.36,1.36,0,0,1,1-.6h0a1.36,1.36,0,0,1,1,.6c.23.27.38.42.68.42s.44-.15.67-.42a1.27,1.27,0,0,1,2.17,0c.23.27.37.42.67.42s.45-.15.67-.42A1.39,1.39,0,0,1,17.6,0a1.36,1.36,0,0,1,1.08.61c.23.27.37.42.67.42S19.8.88,20,.61A1.39,1.39,0,0,1,21.11,0a1.36,1.36,0,0,1,1.08.61c.23.27.37.42.67.42s.45-.15.68-.42A1.34,1.34,0,0,1,24.62,0,1.36,1.36,0,0,1,25.7.61c.23.27.37.42.67.42s.45-.15.67-.42A1.37,1.37,0,0,1,28.13,0a1.36,1.36,0,0,1,1.08.61c.23.27.37.42.67.42s.44-.15.67-.42a1.4,1.4,0,0,1,1-.6h.06a1.38,1.38,0,0,1,1,.6c.23.27.38.42.68.42s.44-.15.67-.42a1.27,1.27,0,0,1,2.17,0c.23.27.37.42.67.42s.44-.15.67-.42a1.27,1.27,0,0,1,2.17,0c.23.27.37.42.67.42s.44-.15.67-.42a1.27,1.27,0,0,1,2.17,0c.23.27.37.42.67.42s.44-.15.67-.42a1.27,1.27,0,0,1,2.17,0c.23.27.37.42.67.42s.44-.15.67-.42a1.27,1.27,0,0,1,2.17,0c.22.27.37.42.67.42s.44-.15.67-.42a1.4,1.4,0,0,1,1-.6h.06a1.4,1.4,0,0,1,1,.6c.23.27.37.42.67.42s.45-.15.68-.42A1.36,1.36,0,0,1,56.16,0a1.37,1.37,0,0,1,1.09.61c.22.27.37.42.67.42s.44-.15.67-.42A1.36,1.36,0,0,1,59.67,0a1.37,1.37,0,0,1,1.09.61c.23.27.37.42.67.42s.44-.15.67-.42A1.36,1.36,0,0,1,63.18,0a1.37,1.37,0,0,1,1.09.61c.22.27.37.42.67.42s.44-.15.67-.42A1.36,1.36,0,0,1,66.69,0a1.37,1.37,0,0,1,1.09.61c.22.27.37.42.67.42s.44-.15.67-.42a1.26,1.26,0,0,1,2.16,0c.23.27.38.42.68.42s.44-.15.67-.42h0a1.38,1.38,0,0,1,1-.6h.06a1.4,1.4,0,0,1,1,.6c.23.27.37.42.67.42s.45-.15.67-.42A1.37,1.37,0,0,1,77.2,0a1.36,1.36,0,0,1,1.08.61c.23.27.38.42.68.42s.44-.15.67-.42a1.26,1.26,0,0,1,2.16,0c.23.27.38.42.68.42s.44-.15.67-.42a1.26,1.26,0,0,1,2.16,0c.23.27.38.42.68.42s.44-.15.67-.42a1.26,1.26,0,0,1,2.16,0c.23.27.38.42.68.42s.44-.15.67-.42a1.26,1.26,0,0,1,2.16,0c.23.27.37.42.67.42s.45-.15.68-.42h0A1.36,1.36,0,0,1,94.75,0h.07V.53h-.07c-.3,0-.44.15-.67.42A1.35,1.35,0,0,1,93,1.57,1.33,1.33,0,0,1,91.91,1c-.23-.27-.37-.42-.67-.42s-.44.15-.67.42a1.33,1.33,0,0,1-1.08.61A1.33,1.33,0,0,1,88.4,1C88.17.69,88,.54,87.73.54s-.44.15-.67.42A1.33,1.33,0,0,1,86,1.57,1.33,1.33,0,0,1,84.89,1c-.23-.27-.37-.42-.67-.42s-.44.15-.67.42a1.33,1.33,0,0,1-1.08.61A1.33,1.33,0,0,1,81.38,1C81.15.69,81,.54,80.71.54S80.27.69,80,1A1.33,1.33,0,0,1,79,1.57,1.33,1.33,0,0,1,77.87,1C77.64.69,77.5.54,77.2.54s-.45.15-.68.42a1.26,1.26,0,0,1-2.16,0C74.13.7,74,.55,73.7.55S73.26.7,73,1A1.33,1.33,0,0,1,72,1.57,1.35,1.35,0,0,1,70.87,1C70.65.69,70.5.54,70.2.54s-.44.15-.67.42a1.33,1.33,0,0,1-1.08.61A1.35,1.35,0,0,1,67.36,1C67.14.69,67,.54,66.69.54S66.25.69,66,1a1.33,1.33,0,0,1-1.08.61A1.35,1.35,0,0,1,63.85,1c-.22-.27-.37-.42-.67-.42s-.44.15-.67.42a1.33,1.33,0,0,1-1.08.61A1.35,1.35,0,0,1,60.34,1C60.12.69,60,.54,59.67.54S59.23.69,59,1a1.33,1.33,0,0,1-1.08.61A1.35,1.35,0,0,1,56.83,1c-.23-.27-.37-.42-.67-.42s-.44.15-.67.42a1.33,1.33,0,0,1-1.09.61A1.33,1.33,0,0,1,53.32,1C53.1.7,53,.55,52.66.55S52.23.7,52,1a1.26,1.26,0,0,1-2.16,0c-.23-.27-.38-.42-.68-.42s-.44.15-.67.42a1.26,1.26,0,0,1-2.16,0C46.1.69,46,.54,45.66.54S45.21.69,45,1a1.26,1.26,0,0,1-2.16,0c-.23-.27-.38-.42-.67-.42s-.45.15-.68.42a1.26,1.26,0,0,1-2.16,0c-.23-.27-.38-.42-.68-.42S38.19.69,38,1A1.26,1.26,0,0,1,35.8,1c-.23-.27-.38-.42-.68-.42s-.44.15-.67.42a1.33,1.33,0,0,1-1.08.61A1.33,1.33,0,0,1,32.28,1c-.22-.26-.37-.41-.66-.41S31.19.7,31,1A1.26,1.26,0,0,1,28.8,1c-.23-.27-.37-.42-.67-.42s-.45.15-.67.42a1.35,1.35,0,0,1-1.09.61A1.33,1.33,0,0,1,25.29,1c-.23-.27-.37-.42-.67-.42S24.17.69,24,1a1.35,1.35,0,0,1-1.09.61A1.33,1.33,0,0,1,21.78,1c-.23-.27-.37-.42-.67-.42s-.45.15-.67.42a1.35,1.35,0,0,1-1.09.61A1.33,1.33,0,0,1,18.27,1C18,.69,17.9.54,17.6.54s-.45.15-.68.42a1.26,1.26,0,0,1-2.16,0c-.23-.27-.37-.42-.67-.42s-.45.15-.68.42a1.33,1.33,0,0,1-1.08.61A1.35,1.35,0,0,1,11.24,1C11,.7,10.87.55,10.59.55S10.15.7,9.93,1a1.33,1.33,0,0,1-1.09.61A1.33,1.33,0,0,1,7.76,1C7.53.69,7.39.54,7.09.54S6.65.69,6.42,1a1.33,1.33,0,0,1-1.09.61A1.33,1.33,0,0,1,4.25,1C4,.69,3.88.54,3.58.54S3.14.69,2.91,1a1.33,1.33,0,0,1-1.08.61A1.33,1.33,0,0,1,.74,1C.51.69.37.54.07.54H0V0H.07"/></g></g></svg>