<svg xmlns="http://www.w3.org/2000/svg" viewBox="0 0 33.04 31.8"><g id="Layer_2" data-name="Layer 2"><g id="Layer_1-2" data-name="Layer 1"><path d="M29.69,18.13c-2.59.79-5.29-.11-9.35.12,2.82,2.7,5.52,3.49,7.32,5.85a4.83,4.83,0,0,1-1,6.76,5,5,0,0,1-6.87-1c-1.58-2.25-1.8-5.41-3.27-8.79-1.46,3.49-1.57,6.54-3.26,8.79a5,5,0,0,1-6.87,1,4.73,4.73,0,0,1-.91-6.76c2-2.59,4.29-3.15,7.1-5.85C8.85,18,6,18.92,3.45,18.13A5.13,5.13,0,0,1,.18,11.94,5,5,0,0,1,6.49,8.67c2.59.79,4.28,3.27,7.77,5.3-.79-3.83-2.7-6.31-2.7-9a4.93,4.93,0,0,1,5-5,5,5,0,0,1,5.07,5c0,2.7-1.8,5.18-2.59,8.78,3.38-1.8,5-4.28,7.55-5.07a5,5,0,0,1,3.15,9.46Z"/></g></g></svg>