<svg xmlns="http://www.w3.org/2000/svg" viewBox="0 0 128.46 102.66">
    <g id="Layer_2" data-name="Layer 2">
        <g id="Layer_1-2" data-name="Layer 1">
            <path
                d="M13.73,79.72c2.69,1.42,4.82,2.41,4.82,5.1a4.29,4.29,0,0,1-4.11,4C9.06,88.79,0,79.44,0,66.84,0,41.35,20.11,21.1,49.42,21.1c13.59,0,23.65,9.49,23.65,20.25,0,7.22-4.25,9.91-9.07,10.62a51.76,51.76,0,0,0,12.75,4.11c2.83-9.77,9.63-15.44,17.13-19.69C104.79,30.3,118.24,26.2,118.24,15c0-5.24-4.39-9.06-10.62-9.06C103.23,6,100,7.79,100,11.19c0,2.55,3.68,6.23,4.82,7.64,1.55,2,.14,3.4-2,2.84C98,20.39,93.88,16,93.88,11.19,93.88,4.82,99.55,0,107.62,0,115,0,120.93,2.55,127,8.21c1.7,1.7,1.84,2.41.7,4.53,0,0-5.94,9.78-7.36,17.56C115.69,54.94,106.63,63,88.36,63c-1.56,0-3.4,0-5-.14A35.59,35.59,0,0,0,83.12,67a23.76,23.76,0,0,0,1,7.08c1.42-2,3.4-3.54,5.81-3.54,2.69,0,3.82,1.41,3.82,3.4,0,4.1-5.94,2.4-5.94,7.64,0,2.55,1.83,3.83,4.1,3.83,5.38,0,7.79-12.6,17.7-12.6,6.23,0,11.9,6.08,11.9,15.71,0,6.94-3.69,14.16-8.78,14.16-3,0-5.67-2.4-5.67-5.09,0-6.52,7.36-5.81,7.36-12,0-3.54-2.12-5-4.52-5-5.67,0-8.36,12.61-17.57,12.61-9.62,0-16.85-13.74-16.85-26.2a28.48,28.48,0,0,1,.29-5,59.06,59.06,0,0,1-12.18-3.68,34,34,0,0,1,.85,7.22c0,9.21-8.21,15-15.86,15-16.85,0-22.09-25.63-33.84-25.63C9.91,54.94,6,59.62,6,66.84,6,75.48,10.2,77.88,13.73,79.72ZM98,43.05c-5.67,3.4-10.76,7.22-13.31,14h3.68c13.17,0,20.67-5.67,25.21-23.37C109,37.1,103.23,39.93,98,43.05Z"/>
        </g>
    </g>
</svg>
