<svg xmlns="http://www.w3.org/2000/svg" viewBox="0 0 82.55 136.22">
    <g id="Layer_2" data-name="Layer 2">
        <g id="Layer_1-2" data-name="Layer 1">
            <path
                d="M55.93.85C69,.85,71.93,0,81,0c1.13,0,1.55.28,1.55,1.42V4.53c0,1.13-.28,1.56-1.55,1.56-10.77.14-13.17,1.84-13.17,8.07V135.94H59.76V7.08h-13V135.8c-1.84-.14-4-.43-6.23-.43-5.81,0-10.62.85-19.83.85-1,0-1.41-.28-1.41-1.27v-3.26c0-1,.28-1.56,1.41-1.56,10.91-.14,13.46-1.84,13.46-7.93v-69H26.48A26.55,26.55,0,0,1,0,26.62C0,11.61,12.18,0,27.89,0,35.54,0,41.63.85,55.93.85Z"/>
        </g>
    </g>
</svg>
