<svg xmlns="http://www.w3.org/2000/svg" viewBox="0 0 33.23 31.65">
    <g id="Layer_2" data-name="Layer 2">
        <g id="Layer_1-2" data-name="Layer 1">
            <path
                d="M33.23,12.5l-1.8,3.61-1.24.34L18.25,17.8,27.14,26l.68,1-.56,3.83-1,.79L22.3,31l-.79-1L16.56,19,11.6,30l-.79,1L7,31.65l-1-.79L5.29,27l.79-1L15,17.8l-12-1.35L1.8,16.11,0,12.5l.34-1.12,3.6-1.81,1.13.34,10.47,6L13.18,4.05V2.82L15.88,0h1.35l2.82,2.82V4.05L17.57,15.88l10.59-6,1.12-.34,3.5,1.81Z"/>
        </g>
    </g>
</svg>
