<svg xmlns="http://www.w3.org/2000/svg" viewBox="0 0 50.13 91.19">
    <g id="Layer_2" data-name="Layer 2">
        <g id="Layer_1-2" data-name="Layer 1">
            <path
                d="M41.92,65.42a19.72,19.72,0,0,1,2.4,9.49c0,10.33-8.63,16.28-18.69,16.28S11.05,86,8.22,86c-.86,0-1.71.43-3.4,1.84-1.28,1-2.27-.14-2.13-1.69s.71-7.94.71-11.19c0-5.24-.71-9.21-.71-10.62,0-1,.29-1.42,1.27-1.42H8.5c1,0,1.27.28,1.41,1.42.85,11,7.93,19,15.58,19,4.25,0,8.07-3,8.07-7.36,0-4-3-6.09-6.09-8.21L13,58.2C6.94,54.09,0,49.56,0,40.07c0-7.36,3.68-11.75,8.07-14.3a20.19,20.19,0,0,1-2.4-9.49C5.67,6.09,14.44,0,24.36,0S39.08,5.24,41.78,5.24c.84,0,1.69-.57,3.39-1.84,1.28-1.14,2.41.14,2.13,1.7s-.57,7.93-.57,11.18c0,5.24.57,9.21.57,10.48,0,1-.29,1.56-1.28,1.56H41.63c-1.13,0-1.41-.28-1.56-1.56-.84-11-7.78-18.83-15.43-18.83-4.25,0-8.21,2.83-8.21,7.36,0,3.83,3.11,6.09,6.09,8.07L37,32.85C43.05,37,50.13,41.63,50.13,51.12A15.84,15.84,0,0,1,41.92,65.42ZM34.27,45.88,15.44,33.28a25.71,25.71,0,0,1-4.68-4,8.81,8.81,0,0,0-2.12,6.23c0,5.52,4.67,8.21,7.08,9.77L34.55,57.92a25.6,25.6,0,0,1,4.68,4,8.78,8.78,0,0,0,2.12-6.23C41.35,50.13,36.68,47.44,34.27,45.88Z"/>
        </g>
    </g>
</svg>
