<svg xmlns="http://www.w3.org/2000/svg" viewBox="0 0 41.53 39.98">
    <g id="Layer_2" data-name="Layer 2">
        <g id="Layer_1-2" data-name="Layer 1">
            <path
                d="M37.33,22.8c-3.26,1-6.66-.14-11.76.14,3.54,3.4,6.94,4.39,9.21,7.36,2,2.55,1.41,6.8-1.28,8.5a6.24,6.24,0,0,1-8.63-1.27c-2-2.84-2.27-6.8-4.11-11-1.84,4.39-2,8.21-4.11,11.05A6.21,6.21,0,0,1,8,38.8c-2.69-1.7-3.26-5.95-1.14-8.5,2.55-3.25,5.38-4,8.92-7.36-4.67-.28-8.21.85-11.47-.14A6.47,6.47,0,0,1,.23,15,6.3,6.3,0,0,1,8.16,10.9c3.25,1,5.38,4.11,9.77,6.66-1-4.82-3.4-7.93-3.4-11.33A6.19,6.19,0,0,1,20.76,0a6.31,6.31,0,0,1,6.37,6.23c0,3.4-2.26,6.51-3.25,11.05,4.24-2.27,6.23-5.38,9.48-6.38A6.3,6.3,0,0,1,41.29,15,6.37,6.37,0,0,1,37.33,22.8Z"/>
        </g>
    </g>
</svg>
