<svg xmlns="http://www.w3.org/2000/svg" viewBox="0 0 74.57 76.14">
    <g id="Layer_2" data-name="Layer 2">
        <g id="Layer_1-2" data-name="Layer 1">
            <path class="cls-1"
                  d="M36.66,76.1c-7.9-1.52-13-2.95-18.86-5.81-6.28-3.05-11.61-5.9-17-10.48a2,2,0,0,1,2.38-3.14,80.72,80.72,0,0,0,16.19,9.81,73.62,73.62,0,0,0,18.1,5.62C39.81,72.48,39,76.58,36.66,76.1ZM71.05,9.91c-3.91,2-7.34,3.23-12.1,5.14a80,80,0,0,0-7.62,3.33A4.78,4.78,0,0,1,53,20.1a4.37,4.37,0,0,1,.1,3.62c1.9-.19,3.62.28,4.47,1.61a4.77,4.77,0,0,1-.76,5.91,4.19,4.19,0,0,1,4.67,1.33c1.9,2.58,1,7-3,11.15a46.09,46.09,0,0,1-7.9,6.57C45,54.1,41,56.19,35.9,59.15c-.66.38-.66,1.24-.38,2.19a19,19,0,0,0,3.72,1c2.28.28,1.71,4.57-.86,4A73.21,73.21,0,0,1,22.09,61,68.13,68.13,0,0,1,7.23,52.29c-2.09-1.52.29-4.67,2.29-3.14A39.29,39.29,0,0,0,14,52c-.58-4-1-7.14-1.24-11.71a67.51,67.51,0,0,1,.66-14.57c.48-3.15,1.81-4.39,3.91-4.77,2.48-.85,3.43-3.71,4.57-5.81,2.48-4.66,5.91-8.57,9.72-8.57,3,0,4,1.91,4.47,4.95.1.58.29,1.24.29,1.24A97.23,97.23,0,0,1,52.47,4C57,2.1,62.57,0,68.67,0c3.23,0,5.9,1.81,5.9,5A6.54,6.54,0,0,1,71.05,9.91ZM67.9,3.71C64.28,3.71,57.43,6,54.09,7.62A124,124,0,0,0,35.62,18.38c-5,3.43-6.29,6.57-11,7.05-2.66.29-3.62-.29-6.57-.29-.57,0-.57.39-.67,1.34a64.24,64.24,0,0,0-.66,13.62c.28,5.43,1.62,11.62,2,14.76A110.39,110.39,0,0,0,31.33,60.2c.29-1.91,1-3.53,2.57-4.48,5.05-3,8.76-5,14.38-8.67,5-3.24,12.19-9,9.91-11.81-2.1-2.57-10.48,4.29-10.48,4.29-1.9,1.9-4.47-1.72-2.28-3.34s11.52-4.95,9-8.38c-2.38-3.24-10.85,4.86-10.85,4.86-1.81,1.9-4.58-1.52-2.38-3.14,1.8-1.34,10.09-4.29,8.28-7.24-1.71-2.76-7.71,1.52-11,4.38-1.81,1.9-4.76-1.05-2.67-3C42.19,18,50.38,14.1,57.24,11.43,61.43,9.81,65.81,8,68.38,6.67c1.43-.76,2.19-1.53,2.1-1.91C70.19,4,69.24,3.71,67.9,3.71ZM31.52,11c-1.71-1-4.29,2.86-6,6a17.94,17.94,0,0,1-3.05,4.58s1.34-.1,1.62-.1c3.81-.48,4.76-3.14,8.57-5.9C31.71,13.14,31.81,11.14,31.52,11Z"/>
        </g>
    </g>
</svg>
