<svg xmlns="http://www.w3.org/2000/svg" viewBox="0 0 74.97 33.96">
    <g id="Layer_2" data-name="Layer 2">
        <g id="Layer_1-2" data-name="Layer 1">
            <path class="cls-1"
                  d="M62.91,4V5.77l-4,10.28,10.19-4H71l4,4v1.78L71,21.9H69.11L58.92,17.83l4,10.27v1.78l-4,4.08H57.14l-4-4.08V28.1l4-10.27L37.53,19.36,17.91,17.83l4,10.27v1.78l-4,4.08H16.13l-4.07-4.08V28.1l4.07-10.27L5.86,21.9H4L0,17.83V16.05l4-4H5.86l10.27,4L12.06,5.77V4l4.07-4h1.78l4,4V5.77l-4,10.28L37.53,14.6l19.61,1.45-4-10.28V4l4-4h1.78Z"/>
        </g>
    </g>
</svg>
