<svg xmlns="http://www.w3.org/2000/svg" viewBox="0 0 46.27 46.05"><g id="Layer_2" data-name="Layer 2"><g id="Layer_1-2" data-name="Layer 1"><path d="M45.78,26.09l-14,.08,11.32,8.1a.44.44,0,0,1-.45.75L30,29.39l6.89,12.07c.3.53-.3,1-.67.53l-9.3-10.35,1.43,13.8c.07.6-.68.9-.9.22L23.13,32.54,18.86,45.66c-.23.68-1,.38-.9-.22l1.42-13.8L10.09,42c-.38.45-1,0-.68-.53l6.9-12.07L3.56,35a.44.44,0,0,1-.45-.75l11.25-8.1L.49,26.09a.45.45,0,1,1-.08-.9l13.65-2.85L1.31,16.65a.43.43,0,0,1,.23-.83l13.65,2.85L5.89,8.4c-.38-.45.07-1.05.6-.68l11.17,8-4.27-13c-.15-.6.52-.9.82-.38l7,11.93L22.68.45a.45.45,0,1,1,.9,0l1.5,13.8,7-11.93c.3-.52,1-.22.82.38L28.61,15.75l11.17-8c.52-.37,1,.23.6.68l-9.3,10.27,13.65-2.85a.43.43,0,0,1,.22.83L32.21,22.34l13.64,2.85C46.45,25.34,46.38,26.09,45.78,26.09Z"/></g></g></svg>