<svg xmlns="http://www.w3.org/2000/svg" viewBox="0 0 177.13 99.41">
    <g id="Layer_2" data-name="Layer 2">
        <g id="Layer_1-2" data-name="Layer 1">
            <path
                d="M172.84,43.05l-4-1.84a1.7,1.7,0,0,0-2.69,1.27A23.19,23.19,0,0,1,143.38,62H114.5A31.57,31.57,0,0,1,88.16,75.33c-18.83,0-31.58-14.58-32.57-33.13,0-.14-.28,0-.57,0-2.12,0-4.38.14-6.37.28C46.81,59.33,32.51,69,18.07,71.09c.7,9.34,4.95,16.56,11.18,16.56,3.4,0,6.09-1.84,9.07-1.84,2.54,0,5.52,2.69,5.52,6,0,4.25-4.67,7.65-9.77,7.65-14.73,0-22.8-14.45-23.79-27.9A11.31,11.31,0,0,1,.51,66.27c-1.14-1.7-.29-3.54,1.7-2.69,1.56.71,5.23,2.26,8.07,2,1.27-15.43,13.17-26.76,32.43-30.3A52.78,52.78,0,0,0,40,23.36c-1.42,2.69-4,4.39-6.38,4.39-2.69,0-3.82-1.41-3.82-3.4,0-4.1,6-2.4,6-7.64a3.16,3.16,0,0,0-.71-2.27C31.1,9.35,25.71,6,20.19,6,14,6,15.66,10.34,19.62,14a6.75,6.75,0,0,1,2.13,5.38,7.65,7.65,0,0,1-7.65,7.79C9,27.19,4.61,22,4.61,15.44A15.39,15.39,0,0,1,20.19,0C35.06,0,47,16.14,48.65,34.55c2-.14,4.25-.42,6.37-.42.29,0,.71.14.71,0,1.84-17.42,14.31-31,32.43-31A31.81,31.81,0,0,1,114.5,16.28h28.88a23.63,23.63,0,0,1,21.53,14.87l10.62,6.38C178.93,39.51,176.38,44.75,172.84,43.05ZM18.21,65.28c11-2,22.09-9.35,24.35-21.81C28.69,46.45,19.77,54.23,18.21,65.28ZM98.5,39.22c0-7.5,3.25-14,8.35-17.13,4.39-2.69.43-9.35-4-6.51-7.08,4.53-12,13.31-12,23.64s5,19.12,12,23.65c4.39,2.83,8.35-3.82,4-6.51C101.75,53.24,98.5,46.73,98.5,39.22Z"/>
        </g>
    </g>
</svg>
