<svg xmlns="http://www.w3.org/2000/svg" viewBox="0 0 146.7 187.03"><defs><style>.cls-1{fill:#6d5bfb;}.cls-2{fill:none;stroke:#6d5bfb;stroke-miterlimit:10;stroke-width:3px;}</style></defs><g id="Layer_2" data-name="Layer 2"><g id="Layer_1-2" data-name="Layer 1"><path class="cls-1" d="M127.38,69.12v4h5.25a19.81,19.81,0,0,0,1.24,1.79l-23.19,60L87.08,81.12c1.24-2.89,6.9-16.83,7-17.25,18.22.28,46.65-3,46.65-21.11,0-7.87-6.21-14.22-14.91-14.22-9.93,0-23,8-34.22,31.19l-.21.44-1.36,0-.52,0c-18.37-.67-31.79-5.27-39.89-13.68a31.27,31.27,0,0,1-8.34-23.09A20.8,20.8,0,0,1,49.42,8C59,.72,71.53,3,76.8,9.58c3.47,4.34,5.1,11.43,1.82,15.76a11.48,11.48,0,0,1-11.13,4.47l1.68-4.37-.83-1.79-6.6-2.43-1.8.82-2.37,6.58.83,1.8,4.51,1.66h0c.11.06.24.1.37.16h0a15,15,0,0,0,18.19-4.76c4.49-5.93,2.38-14.8-1.88-20.14-7.83-9.8-23.32-9-32.32-2.21a24.17,24.17,0,0,0-9.5,17.93,34.48,34.48,0,0,0,9.33,25.84C55.85,58,70.09,63,89.42,63.68h.31l0,.05c-.42,1-.83,2.07-2.21,5.38H50.37L50,70v3.13h6.35c.82.55,1.52,1.1,2.34,1.66l13.8,31.6c-3.17,7.87-7,17.39-11.59,28.71l-26.36-60a19.81,19.81,0,0,0,1.24-1.79h6.49V69.12H0v4.14H6.21c1,.55,1.52,1,2.48,1.52l40.58,92.74h3.31S64,139,74.8,111.76l24.43,55.76h3.45l35.47-92.61c1-.69,1.51-1.1,2.48-1.79h6.07v-4Zm-1.52-36.44c6.49,0,10.91,4.42,10.91,10.08,0,14.49-26.23,17-40.72,17C106.27,39.58,117.72,32.68,125.86,32.68Z"/><line class="cls-2" x1="47.35" y1="185.53" x2="104.35" y2="185.53"/></g></g></svg>