<?xml version="1.0" encoding="utf-8"?>
<!-- Generator: Adobe Illustrator 25.4.1, SVG Export Plug-In . SVG Version: 6.00 Build 0)  -->
<svg version="1.1" id="Layer_1" xmlns="http://www.w3.org/2000/svg" xmlns:xlink="http://www.w3.org/1999/xlink" x="0px" y="0px"
	 viewBox="0 0 360.4 104.6" style="enable-background:new 0 0 360.4 104.6;" xml:space="preserve">
<style type="text/css">
	.st0{fill:#E72C2B;}
	.st1{fill:#FFFFFF;}
	.st2{fill:#1D9ADD;}
</style>
<g id="Layer_1-2">
	<path class="st0" d="M55.2,2.3c16.7,16.7,33.3,33.3,50,49.9L93.6,63.7L71.4,41.5l-0.3,0.1v1.4c0,14,0,28.1,0,42.2
		c0,0.8-0.3,1.6-0.9,2.2c-4.7,4.7-9.5,9.4-14.2,14.1c-0.2,0.2-0.5,0.5-0.9,0.8L55.2,2.3z"/>
	<path class="st1" d="M238.3,30.6c-0.1,0-0.2,0.1-0.3,0.1c-4,0.2-4,0.2-6.2-3.2c-4.3-6.4-8.6-12.9-12.9-19.3
		c-0.2-0.4-0.5-0.7-0.9-1.4v23.8h-4V0.8c1.3,0,2.6-0.1,3.8,0c0.5,0.1,0.9,0.4,1.1,0.8c4.9,7.4,9.8,14.8,14.7,22.1
		c0.2,0.3,0.4,0.6,0.8,1.1v-24h3.9L238.3,30.6z"/>
	<path class="st1" d="M176.3,103.8c-1.1,0-2.5,0.1-3.8,0c-0.4-0.1-0.8-0.5-0.9-0.9c-0.2-1.3-0.2-2.6-0.4-3.9
		c-0.2-1.6-0.4-3.1-0.8-4.7c-0.3-1.7-1.8-3-3.6-3c-3.6-0.1-7.2,0-10.8,0v12.5h-4v-30h1.3c4.5,0,8.9,0,13.4,0c0.9,0,1.8,0.1,2.7,0.3
		c4.4,1,7.1,5.3,6.1,9.6c-0.3,1.4-1,2.6-1.9,3.7c-0.9,0.8-1.8,1.4-2.8,2c0-0.1,0,0,0,0.1c2.4,0.8,3.5,2.6,3.8,5
		c0.2,1.5,0.2,3.1,0.4,4.6S175.9,102.2,176.3,103.8z M156.1,87.5c3.8,0,7.4,0.2,11.1-0.1c2.9-0.2,4.5-2.4,4.3-5.4
		c0.1-2.5-1.8-4.6-4.4-4.8c-0.1,0-0.3,0-0.4,0c-2-0.1-3.9,0-5.9,0c-1.6,0-3.2,0-4.8,0L156.1,87.5z"/>
	<path class="st1" d="M197.4,52.8c3.3,0.9,3.8,3.6,4.1,6.5c0.1,1.5,0.2,3,0.4,4.5c0.3,1.1,0.6,2.2,1,3.3c-1.3,0-2.7,0-4,0
		c-0.3,0-0.7-0.6-0.7-0.9c-0.2-1.3-0.2-2.6-0.4-3.9c-0.2-1.5-0.4-3-0.7-4.5c-0.4-1.9-2-3.3-4-3.3c-3.4-0.1-6.9,0-10.5,0V67h-4V37.2
		h1.3c4.4,0,8.9,0,13.3,0c0.9,0,1.8,0.1,2.6,0.2c2.8,0.6,5,2,5.9,4.8c1.1,2.9,0.5,6.1-1.4,8.5C199.5,51.5,198.5,52.2,197.4,52.8z
		 M182.7,50.8c3.8,0,7.4,0.2,11.1,0c2.8-0.2,4.4-2.3,4.4-5.1s-1.4-4.9-4.2-5c-3.7-0.2-7.5-0.1-11.2-0.1L182.7,50.8z"/>
	<path class="st1" d="M167.7,0c8.4,0,14.4,5.9,14.7,14.7c0.2,4.7-0.9,8.9-4.1,12.5c-5.8,6.5-20.5,6.3-24.3-5.5
		c-1.3-4.1-1.3-8.5,0.2-12.6C156.3,3.4,161.3,0,167.7,0z M157.1,16.7c0.3,1.6,0.6,3.1,1.1,4.7c1.2,3.9,4.9,6.6,9,6.7
		c4.7,0.1,8.2-2.1,9.9-6.3c1.7-4,1.6-8.5-0.2-12.4c-2.3-5.1-8.2-7.4-13.3-5.1c-1,0.5-2,1.1-2.8,1.9C158,8.7,157.3,12.1,157.1,16.7z"
		/>
	<path class="st1" d="M146.1,52.1c0.1-4.9,1.4-9.2,5.3-12.5c4.5-3.7,9.6-4.1,14.9-2.2s8,6.2,8.9,11.6c0.8,4.3,0,8.7-2.3,12.4
		c-2.4,4-6.8,6.4-11.4,6.4C156.3,68,152,66.4,149,62C147,59.1,146,55.6,146.1,52.1z M171.4,51.1c-0.4-1.9-0.9-3.7-1.5-5.5
		c-1.4-3.5-4.8-5.8-8.5-5.7c-4.3-0.2-7.6,1.5-9.5,5.3c-2.3,4.4-2.3,9.6,0.1,14c2.6,4.9,8.7,6.8,13.6,4.2c1.1-0.6,2-1.3,2.8-2.2
		C170.6,58.6,171.2,55.5,171.4,51.1L171.4,51.1z"/>
	<path class="st1" d="M200.4,94h3.6c0.1,0.1,0.2,0.2,0.2,0.2c0.2,4.3,3.4,6.7,8,6.9c1.8,0.1,3.6-0.2,5.3-0.7
		c2.1-0.5,3.4-2.5,3.3-4.6c0-2-1.3-3.7-3.2-4.1c-2.1-0.7-4.3-1.1-6.5-1.7c-1.9-0.5-3.8-1-5.6-1.7c-6-2.4-5-9.8-1.4-12.6
		c4-3.1,11.6-3.4,15.8-0.5c2.6,1.8,3.6,4.3,3.7,7.6c-1.2,0-2.3,0-3.5,0c-0.2,0-0.5-0.4-0.5-0.6c-0.6-3.7-3.2-5.2-6.5-5.4
		c-1.7-0.1-3.3,0.2-4.9,0.7c-1.7,0.5-2.9,2.1-2.9,3.9c-0.3,1.4,0.5,2.8,1.7,3.4c1.7,0.7,3.4,1.3,5.2,1.8c2.2,0.6,4.4,1,6.6,1.7
		c4.4,1.4,6.4,4.3,6,8.6c-0.2,2.9-2.1,5.4-4.8,6.4c-4.7,2.3-10.3,2.2-14.9-0.3C202,101.1,200,97.6,200.4,94z"/>
	<path class="st1" d="M259.8,50V37.2h4V67h-4V53.5h-16v13.5h-4.1V37.2h4V50H259.8z"/>
	<path class="st1" d="M268.8,37.2h21v3.3h-16.9v9.6h15.7v3.4h-15.7v10.3h17v3.3h-21.1V37.2z"/>
	<path class="st1" d="M205.5,0.8h4.1c0,0.4,0.1,0.7,0.1,1.1c0,6.1,0,12.3,0,18.5c0,1-0.1,1.9-0.3,2.9c-0.6,4-3.7,7.1-7.6,7.8
		c-3,0.7-6.2,0.7-9.2-0.2c-4.7-1.3-7.3-4.4-7.4-9.5c-0.2-6.8-0.1-13.6-0.1-20.4h4.1v1.2c0,5.7,0,11.5,0,17.2c0,1,0.1,2,0.3,3
		c0.7,3.5,3.3,5.5,7.3,5.7c0.8,0.1,1.5,0,2.3,0c4.4-0.6,6.5-3.1,6.5-7.8c0-5.9,0-11.9,0-17.8L205.5,0.8z"/>
	<path class="st1" d="M268.6,9.8c-0.5,0-0.8,0-1,0c-1.9,0.2-3.2,0-4-2.2c-1.1-3.1-5.2-4.6-9.1-4.1c-3.9,0.4-7.1,3.1-8.1,6.9
		c-1.2,3.7-1.2,7.6,0.2,11.3c1.7,4.9,6.9,7.6,11.9,6.1c3.5-1,5.4-3.5,6.1-7c0.1-0.3,0.1-0.6,0.1-0.9c0-0.1,0.1-0.2,0.1-0.3h3.9
		c0,4.5-2.6,8.7-6.6,10.7c-3.9,1.7-8.4,1.8-12.4,0.2c-2.4-0.9-4.5-2.6-5.8-4.8c-3.5-5.6-3.3-14.5,0.4-19.9c2.3-3.4,6.1-5.5,10.2-5.6
		c2.6-0.3,5.3,0.2,7.7,1.2C265.8,2.8,268.2,6.1,268.6,9.8z"/>
	<path class="st1" d="M151.4,9.8c-1.3,0-2.4,0-3.5,0c-0.3-0.1-0.6-0.3-0.7-0.6c-1.1-3.7-3.7-5.4-7.3-5.8c-3.8-0.4-7,0.8-9.2,4
		c-3,4.3-3,11.9-0.2,16.3c2.3,3.4,6.5,5.1,10.5,4.1c3.5-0.7,5.9-3.5,6.5-7.6c0-0.2,0.1-0.5,0.2-0.8h4c-0.5,7.3-5.5,11.8-12.7,12
		c-7,0.1-11.9-3.4-13.7-9.4c-0.6-2.1-0.9-4.4-0.9-6.6c-0.1-3.5,0.9-7,2.9-9.8c2.3-3.4,6.1-5.5,10.2-5.7c2.6-0.3,5.3,0.2,7.7,1.2
		C148.5,2.8,150.9,6.1,151.4,9.8z"/>
	<path class="st1" d="M122.2,103.8c0.9-2.2,1.7-4.3,2.5-6.4c3-7.5,6-15,9-22.5c0.3-0.7,0.6-1.1,1.4-1c1.1,0.1,2.6-0.3,3.4,0.2
		s1,2,1.4,3c3.4,8.5,6.8,17,10.2,25.5c0.1,0.4,0.3,0.7,0.4,1.2H146c-1-2.6-2-5.2-2.9-7.9c-0.1-0.8-0.9-1.3-1.7-1.2c0,0,0,0,0,0
		c-3.5,0.1-7,0-10.5,0c-0.7-0.1-1.3,0.3-1.5,1c-0.8,2.4-1.8,4.8-2.7,7.2c-0.2,0.7-0.6,1-1.3,1C124.4,103.7,123.3,103.8,122.2,103.8z
		 M141.3,91.3c-1.7-4.6-3.3-9.1-5.1-13.8c-1.8,4.8-3.4,9.3-5.2,13.8H141.3z"/>
	<path class="st1" d="M263.7,103.7h-4.5c-1-2.7-2-5.3-2.9-8c-0.1-0.7-0.8-1.2-1.5-1.1c-3.6,0.1-7.1,0.1-10.7,0
		c-0.7-0.1-1.4,0.4-1.5,1.1c-0.8,2.4-1.8,4.8-2.6,7.2c-0.1,0.6-0.7,1-1.3,0.9c-1-0.1-2.1,0-3.3,0c0.9-2.2,1.7-4.4,2.6-6.5
		c3-7.5,6-14.9,8.9-22.4c0.2-0.7,0.8-1.1,1.5-1c1.1,0.1,2.5-0.3,3.3,0.2s1,1.9,1.4,2.9c3.4,8.6,6.9,17.2,10.3,25.7
		C263.5,103,263.5,103.3,263.7,103.7z M254.5,91.2c-1.7-4.6-3.3-9.1-5.1-13.8l-5.1,13.8H254.5z"/>
	<path class="st1" d="M130,50.1h13.8v3.3h-13.9V67h-4V37.2h20v3.2H130V50.1z"/>
	<path class="st1" d="M224.1,40.5h-10.2v-3.2h24.4v3.2h-10.1V67h-4.1V40.5z"/>
	<path class="st1" d="M200.4,77.2h-10v26.5h-4.1V77.2H176v-3.3h24.4L200.4,77.2z"/>
	<path class="st1" d="M272.5,77.2v26.5h-4.1V77.2h-10.2v-3.3h24.4v3.3H272.5z"/>
	<path class="st1" d="M144.7,5.9c-1.6-1.1-3.5-1.6-5.4-1.6c-1.6-0.1-3.2,0.3-4.6,1c-1.2,0.6-2.3,1.6-3.1,2.7
		c-0.8,1.2-1.5,2.5-1.8,3.9c-0.4,1.5-0.6,3-0.6,4.5c0,1.6,0.2,3.3,0.6,4.9c0.4,1.4,1,2.8,1.8,4c0.8,1.1,1.9,2.1,3.2,2.7
		c1.4,0.7,3,1,4.6,1c1.2,0,2.4-0.2,3.5-0.6c1-0.4,1.9-1,2.6-1.8c0.8-0.8,1.4-1.7,1.8-2.8c0.4-1.1,0.7-2.3,0.8-3.5h4
		c-0.2,3.3-1.6,6.5-3.9,8.8c-2.2,2.1-5.2,3.2-9.1,3.2c-2.1,0-4.2-0.4-6.1-1.2c-1.7-0.7-3.2-1.9-4.3-3.3c-1.2-1.5-2.1-3.2-2.6-5
		c-0.6-2-0.9-4.1-0.9-6.1c0-2.1,0.3-4.2,0.9-6.1c0.6-1.8,1.5-3.5,2.7-5c1.2-1.4,2.7-2.6,4.4-3.4c1.9-0.8,4-1.2,6.1-1.2
		c1.5,0,3,0.2,4.4,0.6c1.3,0.4,2.6,1,3.7,1.9c1.1,0.8,2,1.8,2.7,3c0.8,1.3,1.2,2.7,1.4,4.2h-4C147.3,8.8,146.2,7.1,144.7,5.9z"/>
	<path class="st1" d="M154.4,10.8c0.6-1.8,1.5-3.5,2.7-5c1.2-1.5,2.8-2.7,4.5-3.5c4-1.7,8.5-1.7,12.5,0c1.7,0.8,3.3,2,4.5,3.5
		c1.2,1.5,2.1,3.2,2.7,5c1.2,3.8,1.2,8,0,11.8c-0.6,1.8-1.5,3.5-2.7,5c-1.2,1.5-2.8,2.6-4.5,3.4c-4,1.7-8.5,1.7-12.5,0
		c-1.7-0.8-3.3-2-4.5-3.5c-1.2-1.5-2.1-3.2-2.7-5C153.2,18.7,153.2,14.6,154.4,10.8L154.4,10.8z M158.1,21.1c0.4,1.4,1,2.8,1.8,4
		c0.8,1.2,2,2.1,3.2,2.8c3,1.4,6.4,1.4,9.4,0c1.3-0.7,2.4-1.7,3.2-2.8c0.9-1.2,1.5-2.6,1.9-4c0.8-2.9,0.8-6,0-8.9
		c-0.4-1.4-1-2.8-1.9-4c-0.8-1.2-2-2.1-3.2-2.8c-3-1.4-6.4-1.4-9.4,0c-1.3,0.7-2.4,1.6-3.2,2.8c-0.8,1.2-1.5,2.6-1.8,4
		C157.3,15.1,157.3,18.2,158.1,21.1L158.1,21.1z"/>
	<path class="st1" d="M206.3,29.4c-2,1.9-4.9,2.9-8.7,2.9c-3.9,0-6.9-0.9-9-2.8s-3.3-4.8-3.3-8.8V1.7h4v19.1c0,2.7,0.7,4.7,2.1,6.1
		c1.7,1.5,3.9,2.2,6.1,2.1c2.1,0.1,4.3-0.6,5.8-2.1c1.3-1.4,2-3.4,2-6.1V1.7h4v19.1C209.4,24.6,208.3,27.5,206.3,29.4z"/>
	<path class="st1" d="M218.3,1.7L234.1,26h0.1V1.7h3.8v30h-4.4L217.9,7.6h-0.1v24.1H214v-30L218.3,1.7z"/>
	<path class="st1" d="M261.7,5.9c-1.6-1.1-3.5-1.6-5.4-1.6c-1.6-0.1-3.2,0.3-4.6,1c-1.2,0.6-2.3,1.6-3.1,2.7
		c-0.8,1.2-1.5,2.5-1.8,3.9c-0.4,1.5-0.6,3-0.6,4.5c0,1.6,0.2,3.3,0.6,4.9c0.4,1.4,1,2.8,1.8,4c0.8,1.1,1.9,2.1,3.2,2.7
		c1.4,0.7,3,1,4.6,1c1.2,0,2.4-0.2,3.5-0.6c1-0.4,1.9-1,2.6-1.8c0.8-0.8,1.4-1.7,1.8-2.8c0.4-1.1,0.7-2.3,0.8-3.5h4
		c-0.2,3.3-1.6,6.5-3.9,8.8c-2.2,2.1-5.2,3.2-9.1,3.2c-2.1,0-4.2-0.4-6.1-1.2c-1.7-0.7-3.2-1.9-4.3-3.3c-1.2-1.5-2.1-3.2-2.6-5
		c-0.6-2-0.9-4.1-0.9-6.1c0-2.1,0.3-4.2,0.9-6.1c0.6-1.8,1.5-3.5,2.7-5c1.2-1.4,2.7-2.6,4.4-3.4c1.9-0.8,4-1.2,6.1-1.2
		c1.5,0,3,0.2,4.5,0.6c1.3,0.4,2.6,1,3.7,1.9c1.1,0.8,2,1.8,2.7,3c0.8,1.3,1.2,2.7,1.4,4.2h-4C264.3,8.8,263.3,7.1,261.7,5.9z"/>
	<path class="st1" d="M276.4,1.7v30h-4v-30L276.4,1.7z"/>
	<path class="st1" d="M285.4,1.7v26.6h15.9v3.4h-19.9v-30L285.4,1.7z"/>
	<path class="st1" d="M145.4,37.7V41h-15.7v9.5h13.8v3.3h-13.8v13.8h-4v-30L145.4,37.7z"/>
	<path class="st1" d="M147.4,46.8c0.6-1.8,1.5-3.5,2.7-5c1.2-1.5,2.8-2.7,4.5-3.5c4-1.7,8.5-1.7,12.5,0c1.7,0.8,3.3,2,4.5,3.5
		c1.2,1.5,2.1,3.2,2.7,5c1.2,3.8,1.2,8,0,11.8c-0.6,1.8-1.5,3.5-2.7,5c-1.2,1.5-2.8,2.6-4.5,3.4c-4,1.7-8.5,1.7-12.5,0
		c-1.7-0.8-3.3-2-4.5-3.5c-1.2-1.5-2.1-3.2-2.7-5C146.1,54.7,146.1,50.6,147.4,46.8L147.4,46.8z M151,57.1c0.4,1.4,1,2.8,1.9,4
		c0.8,1.2,2,2.1,3.2,2.8c3,1.4,6.4,1.4,9.4,0c1.3-0.7,2.4-1.6,3.2-2.8c0.9-1.2,1.5-2.6,1.8-4c0.8-2.9,0.8-6.1,0-9
		c-0.4-1.4-1-2.8-1.8-4c-0.8-1.2-2-2.1-3.2-2.8c-3-1.4-6.4-1.4-9.4,0c-1.3,0.7-2.4,1.7-3.2,2.8c-0.9,1.2-1.5,2.6-1.9,4
		C150.2,51.1,150.2,54.2,151,57.1z"/>
	<path class="st1" d="M192.5,37.7c2.4-0.1,4.8,0.6,6.7,2.1c1.6,1.5,2.5,3.6,2.4,5.8c0,1.7-0.4,3.3-1.2,4.8c-0.9,1.4-2.3,2.4-4,2.8
		v0.1c0.8,0.1,1.5,0.4,2.1,0.8c0.5,0.4,1,0.9,1.3,1.4c0.3,0.6,0.6,1.2,0.7,1.8c0.2,0.7,0.3,1.4,0.4,2.1c0.1,0.7,0.1,1.5,0.1,2.2
		c0,0.7,0.1,1.5,0.2,2.2c0.1,0.7,0.3,1.4,0.5,2.1c0.2,0.6,0.5,1.2,0.9,1.7h-4.4c-0.3-0.4-0.5-0.8-0.6-1.3c-0.1-0.6-0.2-1.2-0.2-1.8
		c0-0.7-0.1-1.4-0.1-2.1c0-0.7-0.1-1.5-0.2-2.2c-0.1-0.7-0.3-1.4-0.4-2.1c-0.2-0.6-0.4-1.2-0.8-1.7c-0.4-0.5-0.9-0.9-1.4-1.2
		c-0.7-0.3-1.5-0.5-2.4-0.4h-9.8v12.8h-4v-30L192.5,37.7z M193.3,51.3c0.8-0.1,1.5-0.4,2.2-0.8c0.6-0.4,1.1-1,1.5-1.6
		c0.4-0.8,0.6-1.7,0.6-2.7c0.1-1.3-0.4-2.7-1.3-3.7c-1.1-1-2.5-1.6-4-1.5h-9.9v10.5h8.3C191.6,51.5,192.5,51.4,193.3,51.3z"/>
	<path class="st1" d="M214,41v-3.3h24V41h-10v26.7h-4V41H214z"/>
	<path class="st1" d="M243.6,37.7v12.9h15.8V37.7h4v30h-4V53.9h-15.8v13.7h-4v-30L243.6,37.7z"/>
	<path class="st1" d="M289.8,37.7V41H273v9.5h15.6v3.3H273v10.4h16.8v3.4H269v-30L289.8,37.7z"/>
	<path class="st1" d="M139.1,73.7l11.7,30h-4.4l-3.3-9h-12.7l-3.4,9H123l11.7-30H139.1z M141.9,91.3l-5-14h-0.1l-5.1,14H141.9z"/>
	<path class="st1" d="M166.2,73.7c2.4-0.1,4.8,0.6,6.7,2.1c1.6,1.5,2.5,3.6,2.4,5.8c0,1.7-0.4,3.3-1.2,4.8c-0.9,1.4-2.3,2.4-4,2.8
		v0.1c0.8,0.1,1.5,0.4,2.1,0.8c0.5,0.4,1,0.9,1.3,1.4c0.3,0.6,0.6,1.2,0.7,1.8c0.2,0.7,0.3,1.4,0.4,2.1c0.1,0.7,0.1,1.5,0.1,2.2
		c0,0.7,0.1,1.5,0.2,2.2c0.1,0.7,0.3,1.4,0.5,2.1c0.2,0.6,0.6,1.2,1,1.7h-4.4c-0.3-0.4-0.5-0.8-0.6-1.3c-0.1-0.6-0.2-1.2-0.2-1.8
		c0-0.7-0.1-1.4-0.1-2.1c0-0.7-0.1-1.5-0.2-2.2c-0.1-0.7-0.2-1.4-0.4-2.1c-0.2-0.6-0.4-1.2-0.8-1.7c-0.4-0.5-0.9-0.9-1.4-1.2
		c-0.7-0.3-1.6-0.5-2.4-0.4h-9.7v12.8h-4v-30L166.2,73.7z M167,87.3c0.8-0.1,1.5-0.4,2.2-0.8c0.6-0.4,1.2-1,1.5-1.6
		c0.4-0.8,0.6-1.7,0.6-2.7c0.1-1.3-0.4-2.7-1.3-3.7c-1.1-1-2.5-1.6-4-1.4h-9.9v10.5h8.3C165.3,87.5,166.1,87.4,167,87.3z"/>
	<path class="st1" d="M176.1,77v-3.3h24V77h-10v26.6h-4V77H176.1z"/>
	<path class="st1" d="M217.5,77.8c-1.5-1-3.3-1.5-5.1-1.4c-0.8,0-1.7,0.1-2.5,0.2c-0.8,0.2-1.5,0.4-2.2,0.8
		c-0.6,0.4-1.1,0.9-1.5,1.6c-0.4,0.8-0.6,1.6-0.6,2.5c0,0.8,0.3,1.6,0.8,2.2c0.6,0.6,1.4,1.1,2.2,1.4c1,0.4,2,0.7,3.1,0.9
		c1.1,0.2,2.3,0.5,3.5,0.8s2.4,0.6,3.5,1c1.1,0.4,2.1,0.9,3.1,1.5c0.9,0.6,1.6,1.5,2.2,2.4c1.2,2.5,1.1,5.4-0.2,7.8
		c-0.7,1.1-1.6,2.1-2.8,2.8c-1.2,0.7-2.4,1.3-3.8,1.6c-1.4,0.3-2.7,0.5-4.1,0.5c-1.6,0-3.2-0.2-4.8-0.6c-1.4-0.4-2.8-1-3.9-1.9
		c-1.1-0.9-2.1-2-2.7-3.3c-0.7-1.5-1-3.1-1-4.7h3.8c0,1.1,0.2,2.2,0.7,3.2c0.5,0.9,1.1,1.7,1.9,2.2c0.8,0.6,1.8,1,2.8,1.3
		c1.1,0.3,2.2,0.4,3.3,0.4c0.9,0,1.8-0.1,2.7-0.2c0.9-0.1,1.7-0.4,2.4-0.9c1.6-0.8,2.6-2.5,2.4-4.3c0.1-0.9-0.2-1.9-0.8-2.6
		c-0.6-0.7-1.3-1.2-2.2-1.6c-1-0.4-2-0.8-3.1-1l-3.5-0.8c-1.2-0.3-2.4-0.6-3.5-0.9c-1.1-0.3-2.1-0.8-3.1-1.4c-2-1.2-3.1-3.4-3-5.7
		c-0.1-2.6,1.2-5.2,3.4-6.7c1.1-0.7,2.2-1.3,3.5-1.6c1.3-0.3,2.6-0.5,4-0.5c1.4,0,2.9,0.2,4.3,0.5c1.3,0.3,2.4,0.9,3.5,1.7
		c1,0.8,1.8,1.8,2.4,3c0.6,1.3,1,2.8,1,4.3h-3.8C219.9,80.6,219,78.9,217.5,77.8z"/>
	<path class="st1" d="M251.4,73.7l11.7,30h-4.4l-3.3-9h-12.7l-3.4,9h-4.1l11.7-30H251.4z M254.2,91.3l-5-14h-0.1l-5.1,14H254.2z"/>
	<path class="st1" d="M258.2,77v-3.3h24V77h-10v26.6h-4V77H258.2z"/>
	<path class="st1" d="M301.1,73.7l9.4,25.2l9.5-25.2h5.5v30h-3.8v-25h-0.1l-9.4,25h-3.4l-9.4-25h-0.1v25h-3.8v-30H301.1z"/>
	<path class="st1" d="M334.6,73.7v30h-4v-30H334.6z"/>
	<path class="st1" d="M336.4,77v-3.3h24V77h-10v26.6h-4V77H336.4z"/>
	<polygon class="st2" points="50.9,2.3 50.9,25.8 24,52.3 50.7,79.5 50.4,103.1 0,52.8 	"/>
</g>
</svg>
