<svg xmlns="http://www.w3.org/2000/svg" viewBox="0 0 360.4 104.6"><g id="Layer_2" data-name="Layer 2"><g id="Layer_1-2" data-name="Layer 1"><path d="M55.17,2.27q25,25,50,49.93L93.63,63.73,71.43,41.55l-.32.14v1.38q0,21.07,0,42.15a2.8,2.8,0,0,1-.91,2.2c-4.74,4.68-9.45,9.41-14.17,14.12-.25.25-.51.49-.88.84Z"/><path d="M238.3,30.61a2.08,2.08,0,0,1-.33.08c-4,.18-4,.18-6.24-3.18q-6.43-9.66-12.85-19.33c-.24-.37-.49-.73-.92-1.37V30.62h-4V.76c1.31,0,2.55-.07,3.78,0a1.83,1.83,0,0,1,1.13.82q7.38,11.06,14.69,22.14c.2.3.41.59.8,1.15V.85h3.9Z"/><path d="M176.27,103.76c-1.15,0-2.46.06-3.76,0a1.3,1.3,0,0,1-.88-.88c-.21-1.29-.23-2.62-.41-3.92a43.84,43.84,0,0,0-.77-4.7,3.68,3.68,0,0,0-3.57-3c-3.58-.13-7.17,0-10.84,0v12.54H152V73.82h1.29c4.47,0,8.95,0,13.42,0a13.9,13.9,0,0,1,2.73.28,8.08,8.08,0,0,1,4.25,13.3,17.18,17.18,0,0,1-2.79,2c0-.07,0,0,0,.06,2.45.77,3.52,2.6,3.81,5,.18,1.54.2,3.11.45,4.64S175.89,102.18,176.27,103.76ZM156.05,87.47c3.78,0,7.45.18,11.1-.06,2.89-.18,4.47-2.44,4.32-5.43a4.56,4.56,0,0,0-4.77-4.75c-2-.09-3.91,0-5.87,0-1.58,0-3.16,0-4.78,0Z"/><path d="M197.45,52.84c3.28.92,3.81,3.62,4.1,6.45.15,1.51.19,3,.44,4.52a25.07,25.07,0,0,0,1,3.3c-1.3,0-2.67,0-4,0-.27,0-.68-.56-.73-.91-.2-1.29-.23-2.61-.39-3.91a41.75,41.75,0,0,0-.7-4.48,4,4,0,0,0-4-3.28c-3.43-.07-6.87,0-10.48,0V67h-4V37.17h1.33c4.44,0,8.87,0,13.31,0a12.69,12.69,0,0,1,2.61.25c2.8.57,5,2,5.94,4.79a8.51,8.51,0,0,1-1.44,8.46A15,15,0,0,1,197.45,52.84Zm-14.77-2c3.76,0,7.43.17,11.07,0,2.77-.17,4.35-2.26,4.35-5.06s-1.39-4.86-4.17-5c-3.72-.23-7.47-.06-11.25-.06Z"/><path d="M167.69,0c8.43,0,14.37,5.91,14.69,14.68.16,4.66-.93,8.91-4.13,12.49-5.79,6.5-20.51,6.32-24.26-5.48a19.15,19.15,0,0,1,.2-12.55C156.27,3.41,161.29,0,167.69,0ZM157.13,16.67a37.8,37.8,0,0,0,1.07,4.68,9.58,9.58,0,0,0,9,6.68c4.73.09,8.22-2.06,9.9-6.26a15.44,15.44,0,0,0-.16-12.44,10.11,10.11,0,0,0-16.14-3.27C158,8.66,157.27,12.1,157.13,16.67Z"/><path d="M146.11,52.09c.07-4.86,1.41-9.25,5.28-12.45,4.46-3.69,9.63-4.11,14.89-2.23s8,6.21,8.9,11.65a17.45,17.45,0,0,1-2.26,12.42,13.26,13.26,0,0,1-11.41,6.36C156.34,68,152,66.37,149,62A16.59,16.59,0,0,1,146.11,52.09Zm25.28-1a34.35,34.35,0,0,0-1.52-5.48,9.17,9.17,0,0,0-8.53-5.74c-4.27-.18-7.6,1.49-9.51,5.35a14.93,14.93,0,0,0,.08,14,10.07,10.07,0,0,0,16.4,2C170.57,58.62,171.2,55.47,171.39,51.07Z"/><path d="M200.35,94H204c.08.09.17.15.17.21.22,4.26,3.43,6.68,8,6.88a16.11,16.11,0,0,0,5.29-.73,4.47,4.47,0,0,0,3.31-4.6,4.19,4.19,0,0,0-3.23-4.12c-2.11-.71-4.31-1.13-6.46-1.72a56.57,56.57,0,0,1-5.6-1.71c-6-2.36-5-9.78-1.37-12.59,4-3.09,11.6-3.39,15.75-.52,2.56,1.78,3.62,4.34,3.74,7.59-1.19,0-2.33,0-3.46,0-.19,0-.48-.4-.52-.64-.59-3.69-3.18-5.22-6.47-5.41a14.71,14.71,0,0,0-4.92.68,4,4,0,0,0-2.87,3.89,3.11,3.11,0,0,0,1.74,3.38,40.44,40.44,0,0,0,5.18,1.75c2.19.62,4.45,1,6.6,1.71,4.43,1.42,6.35,4.26,6,8.6a7.52,7.52,0,0,1-4.78,6.4,16.53,16.53,0,0,1-14.91-.3A9,9,0,0,1,200.35,94Z"/><path d="M259.84,50V37.23h4V67h-4V53.53h-16V67.05h-4.07V37.25h4V50Z"/><path d="M268.78,37.21h21v3.28H272.9v9.58h15.7v3.39H272.87V63.72h17v3.35H268.78Z"/><path d="M205.53.81h4.09c0,.39.07.74.07,1.08,0,6.15,0,12.3,0,18.45a16.11,16.11,0,0,1-.29,2.85,9.34,9.34,0,0,1-7.61,7.8,18.69,18.69,0,0,1-9.25-.18c-4.66-1.27-7.27-4.41-7.41-9.52-.19-6.78-.05-13.57-.05-20.44h4.07V2.08c0,5.74,0,11.49,0,17.24a14.79,14.79,0,0,0,.27,3c.71,3.48,3.32,5.52,7.28,5.73A13.25,13.25,0,0,0,199,28c4.35-.58,6.52-3.15,6.54-7.82,0-5.94,0-11.89,0-17.84Z"/><path d="M268.65,9.82c-.5,0-.78,0-1,0-1.85.18-3.16,0-4-2.24-1.14-3.12-5.17-4.61-9.06-4.09a9.36,9.36,0,0,0-8.08,6.87,16.78,16.78,0,0,0,.21,11.27,9.65,9.65,0,0,0,11.9,6.09c3.52-1,5.38-3.51,6.07-7,.06-.31.09-.63.15-.94a1.24,1.24,0,0,1,.13-.29h3.85a11.92,11.92,0,0,1-6.62,10.68,16,16,0,0,1-12.37.23A11.61,11.61,0,0,1,244,25.56c-3.51-5.59-3.34-14.52.42-19.89A13,13,0,0,1,254.67.06a15.06,15.06,0,0,1,7.72,1.25A10.62,10.62,0,0,1,268.65,9.82Z"/><path d="M151.36,9.82c-1.31,0-2.43,0-3.54,0a1,1,0,0,1-.7-.57C146,5.58,143.4,3.84,139.8,3.48c-3.75-.37-7,.76-9.18,4-3,4.27-3,11.92-.18,16.29a9.79,9.79,0,0,0,10.49,4.07c3.46-.71,5.85-3.5,6.49-7.56,0-.23.09-.47.16-.77h4c-.54,7.34-5.47,11.81-12.73,12-7,.15-11.92-3.38-13.67-9.35a25.69,25.69,0,0,1-.92-6.59,16.19,16.19,0,0,1,2.88-9.83A13,13,0,0,1,137.37.06a15.16,15.16,0,0,1,7.72,1.24A10.6,10.6,0,0,1,151.36,9.82Z"/><path d="M122.15,103.77c.86-2.21,1.68-4.32,2.52-6.41q4.48-11.26,9-22.54c.28-.72.58-1.1,1.43-1,1.15.11,2.57-.33,3.39.21s1,2,1.45,3q5.1,12.76,10.17,25.52c.15.36.27.73.43,1.17H146c-1-2.61-2-5.23-2.89-7.9a1.45,1.45,0,0,0-1.68-1.19c-3.51.06-7,0-10.54,0a1.28,1.28,0,0,0-1.47,1c-.84,2.41-1.8,4.78-2.65,7.18-.25.69-.55,1-1.34,1C124.38,103.71,123.34,103.77,122.15,103.77Zm19.19-12.49c-1.69-4.61-3.34-9.1-5.09-13.85-1.78,4.8-3.45,9.28-5.16,13.85Z"/><path d="M263.69,103.72h-4.52c-1-2.67-2-5.31-2.91-8a1.33,1.33,0,0,0-1.51-1.1q-5.33.09-10.66,0a1.35,1.35,0,0,0-1.52,1.09c-.84,2.4-1.79,4.77-2.64,7.17a1.12,1.12,0,0,1-1.3.88c-1-.06-2.07,0-3.28,0,.88-2.24,1.71-4.37,2.56-6.5,3-7.48,6-14.94,8.91-22.43a1.32,1.32,0,0,1,1.54-1c1.11.1,2.48-.32,3.28.19s1,1.9,1.41,2.92q5.15,12.87,10.27,25.74C263.45,103,263.55,103.31,263.69,103.72Zm-9.15-12.47c-1.69-4.58-3.34-9.07-5.08-13.82l-5.15,13.82Z"/><path d="M130,50.1h13.84v3.34h-13.9V67h-4V37.24h20v3.23H130Z"/><path d="M224.12,40.5h-10.2V37.26h24.37V40.5H228.23V67h-4.11Z"/><path d="M200.41,77.17h-10v26.52h-4.15V77.18H176V73.9h24.4Z"/><path d="M272.55,77.17V103.7h-4.07V77.23H258.3V73.89h24.39v3.28Z"/><path d="M144.67,5.9a9.31,9.31,0,0,0-5.44-1.59,9.65,9.65,0,0,0-4.6,1A9.15,9.15,0,0,0,131.48,8a11.82,11.82,0,0,0-1.83,3.89,17.42,17.42,0,0,0-.58,4.53,19.61,19.61,0,0,0,.58,4.86,11.79,11.79,0,0,0,1.83,4,9,9,0,0,0,3.17,2.7,9.78,9.78,0,0,0,4.62,1,8.79,8.79,0,0,0,3.51-.65,7.84,7.84,0,0,0,2.64-1.8,8.24,8.24,0,0,0,1.75-2.75,11.41,11.41,0,0,0,.75-3.45h4a13.62,13.62,0,0,1-3.9,8.82q-3.31,3.15-9.07,3.15a14.39,14.39,0,0,1-6.09-1.2,11.85,11.85,0,0,1-4.33-3.29,14.11,14.11,0,0,1-2.58-5,20.93,20.93,0,0,1-.86-6.13,19.85,19.85,0,0,1,.92-6.15,14.81,14.81,0,0,1,2.71-5,12.51,12.51,0,0,1,4.45-3.38A14.28,14.28,0,0,1,139.27,1a15.39,15.39,0,0,1,4.45.63,11.79,11.79,0,0,1,3.74,1.85,10.37,10.37,0,0,1,2.73,3,11.27,11.27,0,0,1,1.43,4.22h-4A7.46,7.46,0,0,0,144.67,5.9Z"/><path d="M154.41,10.75a14.81,14.81,0,0,1,2.71-5,13.12,13.12,0,0,1,4.5-3.49,15.7,15.7,0,0,1,12.51,0,13.17,13.17,0,0,1,4.49,3.49,14.64,14.64,0,0,1,2.71,5,19.61,19.61,0,0,1,0,11.81,14.64,14.64,0,0,1-2.71,5A12.88,12.88,0,0,1,174.13,31a15.92,15.92,0,0,1-12.51,0,12.83,12.83,0,0,1-4.5-3.47,14.81,14.81,0,0,1-2.71-5,19.82,19.82,0,0,1,0-11.81Zm3.68,10.38a12.34,12.34,0,0,0,1.84,4,9.44,9.44,0,0,0,3.24,2.83,10.88,10.88,0,0,0,9.41,0,9.5,9.5,0,0,0,3.23-2.83,12.15,12.15,0,0,0,1.85-4,17.27,17.27,0,0,0,0-8.95,12.15,12.15,0,0,0-1.85-4,9.5,9.5,0,0,0-3.23-2.83,10.88,10.88,0,0,0-9.41,0,9.44,9.44,0,0,0-3.24,2.83,12.34,12.34,0,0,0-1.84,4,17.27,17.27,0,0,0,0,9Z"/><path d="M206.3,29.44q-3.06,2.88-8.73,2.88c-3.87,0-6.88-.92-9-2.75s-3.26-4.75-3.26-8.76V1.66h4V20.81q0,4,2.14,6.11A8.51,8.51,0,0,0,197.57,29a7.7,7.7,0,0,0,5.82-2.08c1.32-1.38,2-3.42,2-6.11V1.66h4V20.81Q209.37,26.57,206.3,29.44Z"/><path d="M218.27,1.66,234.06,26h.09V1.66h3.78v30h-4.37L217.89,7.58h-.08V31.65H214v-30Z"/><path d="M261.68,5.9a9.31,9.31,0,0,0-5.44-1.59,9.65,9.65,0,0,0-4.6,1A9.15,9.15,0,0,0,248.49,8a11.82,11.82,0,0,0-1.83,3.89,17.42,17.42,0,0,0-.58,4.53,19.61,19.61,0,0,0,.58,4.86,11.79,11.79,0,0,0,1.83,4,9,9,0,0,0,3.17,2.7,9.78,9.78,0,0,0,4.62,1,8.79,8.79,0,0,0,3.51-.65,7.84,7.84,0,0,0,2.64-1.8,8.24,8.24,0,0,0,1.75-2.75,11.41,11.41,0,0,0,.75-3.45h4a13.62,13.62,0,0,1-3.9,8.82q-3.31,3.15-9.07,3.15a14.39,14.39,0,0,1-6.09-1.2,11.85,11.85,0,0,1-4.33-3.29,14.11,14.11,0,0,1-2.58-5,20.93,20.93,0,0,1-.86-6.13,19.85,19.85,0,0,1,.92-6.15,14.81,14.81,0,0,1,2.71-5,12.51,12.51,0,0,1,4.45-3.38A14.31,14.31,0,0,1,256.28,1a15.39,15.39,0,0,1,4.45.63,11.79,11.79,0,0,1,3.74,1.85,10.37,10.37,0,0,1,2.73,3,11.1,11.1,0,0,1,1.43,4.22h-4A7.46,7.46,0,0,0,261.68,5.9Z"/><path d="M276.36,1.66v30h-4v-30Z"/><path d="M285.39,1.66V28.29h15.87v3.36H281.4v-30Z"/><path d="M145.4,37.66V41H129.7v9.54h13.77v3.35H129.7V67.65h-4v-30Z"/><path d="M147.36,46.75a14.78,14.78,0,0,1,2.71-5,13.27,13.27,0,0,1,4.49-3.48,15.72,15.72,0,0,1,12.52,0,13.27,13.27,0,0,1,4.49,3.48,15,15,0,0,1,2.71,5,19.82,19.82,0,0,1,0,11.81,14.81,14.81,0,0,1-2.71,5A12.88,12.88,0,0,1,167.08,67a15.95,15.95,0,0,1-12.52,0,12.88,12.88,0,0,1-4.49-3.47,14.64,14.64,0,0,1-2.71-5,19.61,19.61,0,0,1,0-11.81ZM151,57.13a12.15,12.15,0,0,0,1.85,4,9.5,9.5,0,0,0,3.23,2.83,10.88,10.88,0,0,0,9.41,0,9.44,9.44,0,0,0,3.24-2.83,12.13,12.13,0,0,0,1.84-4,17.27,17.27,0,0,0,0-9,12.13,12.13,0,0,0-1.84-4,9.44,9.44,0,0,0-3.24-2.83,10.88,10.88,0,0,0-9.41,0,9.5,9.5,0,0,0-3.23,2.83,12.15,12.15,0,0,0-1.85,4,17.27,17.27,0,0,0,0,9Z"/><path d="M192.49,37.66a9.86,9.86,0,0,1,6.69,2.1,7.24,7.24,0,0,1,2.42,5.76,9,9,0,0,1-1.24,4.78,6.39,6.39,0,0,1-4,2.82v.08a5.35,5.35,0,0,1,2.12.84,4.47,4.47,0,0,1,1.3,1.41,6.53,6.53,0,0,1,.72,1.82,20,20,0,0,1,.35,2.1c.06.73.1,1.48.13,2.23a20.29,20.29,0,0,0,.21,2.23,12.38,12.38,0,0,0,.49,2.08,5.06,5.06,0,0,0,.94,1.74H198.2a2.54,2.54,0,0,1-.57-1.26,12.94,12.94,0,0,1-.19-1.79c0-.65-.06-1.36-.08-2.12a16.39,16.39,0,0,0-.25-2.22c-.12-.73-.26-1.42-.42-2.08a5,5,0,0,0-.8-1.72,4,4,0,0,0-1.43-1.18,5.35,5.35,0,0,0-2.35-.44h-9.75V67.65h-4v-30Zm.84,13.61a5.75,5.75,0,0,0,2.2-.82A4.5,4.5,0,0,0,197,48.81a5.45,5.45,0,0,0,.57-2.67,5.36,5.36,0,0,0-1.26-3.69A5.18,5.18,0,0,0,192.28,41h-9.92V51.48h8.32A16.17,16.17,0,0,0,193.33,51.27Z"/><path d="M214,41V37.66h24V41h-10V67.65h-4V41Z"/><path d="M243.56,37.66v12.9h15.79V37.66h4v30h-4V53.91H243.56V67.65h-4v-30Z"/><path d="M289.76,37.66V41H273v9.54h15.58v3.35H273V64.29h16.84v3.36H269.05v-30Z"/><path d="M139.1,73.66l11.72,30h-4.41l-3.27-9H130.45l-3.36,9H123l11.67-30Zm2.78,17.6-5-14h-.09l-5.08,14Z"/><path d="M166.19,73.66a9.87,9.87,0,0,1,6.7,2.1,7.24,7.24,0,0,1,2.42,5.76,9.12,9.12,0,0,1-1.24,4.78,6.39,6.39,0,0,1-4,2.82v.08a5.41,5.41,0,0,1,2.12.84,4.47,4.47,0,0,1,1.3,1.41,6.53,6.53,0,0,1,.72,1.82,20,20,0,0,1,.35,2.1c.06.73.1,1.48.13,2.23a20.29,20.29,0,0,0,.21,2.23,13.44,13.44,0,0,0,.48,2.08,5.26,5.26,0,0,0,1,1.74h-4.45a2.46,2.46,0,0,1-.57-1.26,12.94,12.94,0,0,1-.19-1.79c0-.65-.06-1.36-.09-2.12a13.72,13.72,0,0,0-.25-2.22,20.66,20.66,0,0,0-.42-2.08,4.94,4.94,0,0,0-.79-1.72,4,4,0,0,0-1.43-1.18,5.4,5.4,0,0,0-2.36-.44h-9.74v12.81h-4v-30ZM167,87.27a5.73,5.73,0,0,0,2.21-.82,4.5,4.5,0,0,0,1.51-1.64,5.45,5.45,0,0,0,.57-2.67,5.36,5.36,0,0,0-1.26-3.69A5.19,5.19,0,0,0,166,77h-9.91V87.48h8.32A16,16,0,0,0,167,87.27Z"/><path d="M176.06,77V73.66h24V77h-10v26.63h-4V77Z"/><path d="M217.54,77.76a8.43,8.43,0,0,0-5.1-1.45,12.06,12.06,0,0,0-2.48.25,6.64,6.64,0,0,0-2.17.84A4.46,4.46,0,0,0,206.28,79a4.87,4.87,0,0,0-.56,2.46,3.17,3.17,0,0,0,.81,2.25,6.12,6.12,0,0,0,2.19,1.4,18,18,0,0,0,3.09.91c1.14.24,2.31.5,3.5.78s2.36.6,3.51,1a11.73,11.73,0,0,1,3.09,1.53,7.4,7.4,0,0,1,2.18,2.44,8.54,8.54,0,0,1-.25,7.79,8.76,8.76,0,0,1-2.75,2.77,11.86,11.86,0,0,1-3.76,1.56,18.41,18.41,0,0,1-4.14.48,17.62,17.62,0,0,1-4.77-.63,11.84,11.84,0,0,1-3.94-1.91,9,9,0,0,1-2.69-3.28,10.5,10.5,0,0,1-1-4.72h3.78a6.75,6.75,0,0,0,.74,3.25,6.69,6.69,0,0,0,1.93,2.25,8.15,8.15,0,0,0,2.79,1.3,12.83,12.83,0,0,0,3.28.42,14.77,14.77,0,0,0,2.71-.25,7.81,7.81,0,0,0,2.45-.86,4.6,4.6,0,0,0,2.44-4.35A3.76,3.76,0,0,0,220.1,93a6,6,0,0,0-2.18-1.57,15.57,15.57,0,0,0-3.09-1l-3.51-.78c-1.19-.26-2.36-.57-3.5-.92a12.46,12.46,0,0,1-3.09-1.39,6.19,6.19,0,0,1-3-5.65,7.78,7.78,0,0,1,3.39-6.65,10.87,10.87,0,0,1,3.48-1.6,15.37,15.37,0,0,1,4-.52,16.26,16.26,0,0,1,4.29.54,9.71,9.71,0,0,1,3.46,1.73,8.16,8.16,0,0,1,2.35,3,10.53,10.53,0,0,1,1,4.26h-3.78A6.24,6.24,0,0,0,217.54,77.76Z"/><path d="M251.45,73.66l11.72,30h-4.41l-3.28-9H242.8l-3.36,9h-4.07l11.67-30Zm2.77,17.6-5-14h-.09l-5.08,14Z"/><path d="M258.22,77V73.66h24V77h-10v26.63h-4V77Z"/><path d="M301.06,73.66l9.44,25.2,9.5-25.2h5.46v30h-3.78v-25h-.09l-9.36,25h-3.41l-9.36-25h-.09v25H295.6v-30Z"/><path d="M334.57,73.66v30h-4v-30Z"/><path d="M336.42,77V73.66h24V77h-10v26.63h-4V77Z"/><polygon points="50.88 2.28 50.88 25.76 24.01 52.33 50.69 79.49 50.43 103.1 0 52.8 50.88 2.28"/></g></g></svg>